<svg width="60" height="60" fill="none" xmlns="http://www.w3.org/2000/svg"><g clip-path="url(#clip0)" fill="#000"><path d="M60 40.645V25.488a4.836 4.836 0 00-3.973-4.76l-6.672-1.213v-1.867a7.727 7.727 0 002.903-6.034V9.678h1.935V7.742h-1.935v-.968A6.782 6.782 0 0045.484 0h-1.936a6.782 6.782 0 00-6.774 6.774v.968H34.84v1.935h1.935v1.936a7.718 7.718 0 002.638 5.806H31.1l-1.014-1.774c.1-.22.194-.44.277-.663l2.54-.695V8.939l-2.54-.695a9.829 9.829 0 00-.277-.663l1.308-2.288-3.781-3.782-2.291 1.306c-.22-.1-.44-.194-.662-.277L23.965 0h-5.349l-.694 2.54a9.683 9.683 0 00-.662.277l-2.291-1.306-3.78 3.782 1.307 2.288a9.69 9.69 0 00-.277.663l-2.542.695v5.348l2.54.695c.084.222.177.444.278.663l-1.014 1.774H4.84A4.844 4.844 0 000 22.26v32.9A4.844 4.844 0 004.839 60h6.774v-7.742H22.03l3.87 1.935h29.261A4.844 4.844 0 0060 49.355a4.844 4.844 0 00-4.839-4.839h-2.903v-3.87H60zm-1.935-15.157V38.71h-3.871v-9.678h-1.936v9.678H36.774v-9.678H34.84v9.678h-3.871V25.488a2.902 2.902 0 012.383-2.856l3.799-.692 1.955 7.82 5.411-4.327 5.412 4.33 1.954-7.82 3.8.69a2.9 2.9 0 012.383 2.855zm-17.746-4.122l2.747 2.747-2.817 2.254-1.192-4.772 1.262-.23zm9.656.23l-1.192 4.771-2.817-2.254 2.747-2.747 1.262.23zm-2.556-1.674l-2.903 2.903-2.903-2.903v-1.137a7.689 7.689 0 005.806 0v1.137zm2.904-13.148v.968h-2.775l.623-4.988a4.835 4.835 0 012.152 4.02zm-4.84-4.839c.284 0 .56.037.83.085l-.716 5.722h-2.162L42.72 2.02c.27-.048.545-.085.828-.085h1.936zm-6.773 4.84c0-1.675.855-3.152 2.151-4.02l.623 4.987H38.71v-.968zm0 4.838V9.677h11.613v1.936a5.812 5.812 0 01-5.807 5.806 5.812 5.812 0 01-5.806-5.806zm-24.265 3.61a7.68 7.68 0 01-.553-1.325l-.156-.508-2.123-.58v-2.394l2.122-.58.156-.509a7.75 7.75 0 01.553-1.325l.25-.47-1.093-1.915 1.692-1.694 1.916 1.093.469-.248a7.76 7.76 0 011.327-.553l.507-.157.582-2.123h2.393l.582 2.123.507.157a7.73 7.73 0 011.327.553l.469.248 1.915-1.093 1.693 1.694-1.094 1.915.25.47c.229.43.415.877.554 1.325l.156.508 2.122.581v2.394l-2.122.58-.156.508c-.14.449-.325.895-.554 1.325l-.25.47.985 1.726H13.71l.985-1.725-.25-.471zM9.677 58.065H4.84a2.907 2.907 0 01-2.904-2.904c0-1.6 1.303-2.903 2.904-2.903h4.838v5.806zm17.42-11.613h21.29v5.806h-21.29v-5.806zM25.16 51.66l-4.61-2.305 4.61-2.305v4.61zm32.903-2.305c0 1.6-1.302 2.903-2.903 2.903h-4.838v-5.806h4.838c1.6 0 2.904 1.302 2.904 2.903zm-7.741-4.839H25.9l-9.678 4.839 1.936.968H4.839a4.79 4.79 0 00-2.904.992V22.258c0-1.6 1.303-2.903 2.904-2.903h34.838v.16l-6.672 1.213a4.837 4.837 0 00-3.973 4.76v15.157h21.29v3.871z"/><path d="M27.097 11.613a5.812 5.812 0 00-5.807-5.807 5.812 5.812 0 00-5.806 5.807 5.812 5.812 0 005.806 5.806 5.812 5.812 0 005.807-5.806zm-5.807 3.87a3.875 3.875 0 01-3.87-3.87 3.875 3.875 0 013.87-3.871 3.875 3.875 0 013.871 3.87 3.875 3.875 0 01-3.87 3.872zM3.871 46.452h11.613v1.935H3.87v-1.935zM17.42 21.29a9.641 9.641 0 00-9.244 6.808L3.87 23.793v20.723h20.723l-4.305-4.305a9.648 9.648 0 006.808-9.243c0-5.337-4.341-9.678-9.678-9.678zM5.805 42.58V28.466l14.116 14.116H5.806zm12.872-3.98l-8.89-8.89a7.708 7.708 0 017.631-6.484c4.27 0 7.742 3.473 7.742 7.742a7.712 7.712 0 01-6.483 7.631z"/></g><defs><clipPath id="clip0"><path fill="#fff" d="M0 0h60v60H0z"/></clipPath></defs></svg>