<svg width="60" height="60" fill="none" xmlns="http://www.w3.org/2000/svg"><path d="M55.761 16.035l-3.503-.438v-1.336a6.767 6.767 0 002.903-5.551v-.968h1.936V5.806H55.16V4.84A4.844 4.844 0 0050.323 0h-3.871a4.844 4.844 0 00-4.84 4.839v.967h-1.935v1.936h1.936v.968a6.764 6.764 0 002.903 5.55v1.337l-3.503.438a4.843 4.843 0 00-3.277 1.916l-3.865-.43v-1.325a6.767 6.767 0 002.903-5.55v-.969h1.936V7.742h-1.936v-.968a4.844 4.844 0 00-4.838-4.839h-3.872a4.844 4.844 0 00-4.838 4.84v.967H21.29v1.935h1.936v.968a6.764 6.764 0 002.903 5.551v1.325l-3.865.43a4.847 4.847 0 00-3.277-1.916l-3.503-.438v-1.336a6.767 6.767 0 002.903-5.551v-.968h1.936V5.806h-1.936V4.84A4.844 4.844 0 0013.548 0h-3.87a4.844 4.844 0 00-4.84 4.839v.967H2.904v1.936H4.84v.968a6.764 6.764 0 002.903 5.55v1.337l-3.503.438A4.846 4.846 0 000 20.836v13.035c0 1.6 1.303 2.903 2.903 2.903a2.87 2.87 0 001.01-.192L4.878 60h13.47l.975-23.414c.313.115.646.188 1 .188a2.88 2.88 0 001.936-.755v.797L23.266 60h13.467l1.009-23.226v-.754a2.88 2.88 0 001.935.754c.358 0 .695-.074 1.01-.192L41.654 60h13.469l.975-23.414c.313.115.646.188 1 .188 1.6 0 2.903-1.303 2.903-2.903V20.836c0-2.434-1.822-4.5-4.239-4.8zm-4.122 1.436l.617.077-1.292 3.016-1.209-1.21 1.884-1.883zm1.587-12.632v.967h-2.73l.625-3.745a2.898 2.898 0 012.105 2.778zm-5.632-2.904h1.585l-.645 3.871h-.296l-.644-3.87zM43.548 4.84c0-1.322.893-2.428 2.105-2.778l.624 3.745h-2.729V4.84zm0 3.87v-.967h9.678v.968a4.844 4.844 0 01-4.839 4.838 4.844 4.844 0 01-4.839-4.838zm4.84 6.775a6.73 6.73 0 001.935-.286v.853l-1.936 1.935-1.935-1.935V15.2a6.734 6.734 0 001.935.285zm-3.253 1.987l1.884 1.884-1.21 1.209-1.291-3.016.617-.077zM34.839 6.774v.968h-2.73l.625-3.745a2.898 2.898 0 012.105 2.777zm-5.632-2.903h1.585l-.645 3.87h-.296l-.644-3.87zM25.16 6.774c0-1.322.893-2.428 2.105-2.777l.624 3.745H25.16v-.968zm0 3.871v-.968h9.678v.968A4.844 4.844 0 0130 15.484a4.844 4.844 0 01-4.839-4.839zM30 17.42a6.73 6.73 0 001.936-.285v.735L30 19.16l-1.936-1.29v-.735A6.73 6.73 0 0030 17.42zm-3.147 1.969L30 21.486l3.147-2.098 4.916.546a2.9 2.9 0 012.582 2.885v6.213a.97.97 0 01-.968.968h-5.806a.97.97 0 01-.968-.968.97.97 0 01.968-.968h4.839v-5.806h-1.936v3.871H34.84v-3.87h-9.68v3.87h-1.935v-3.87H21.29v5.805h4.839a.97.97 0 01.968.968.97.97 0 01-.968.968h-5.806a.97.97 0 01-.968-.968V22.82a2.9 2.9 0 012.582-2.885l4.916-.546zm-2.66 16.418v-3.87h.968v1.935h9.678v-1.936h.967l.001 3.871H24.193zm2.904-9.499v-2.113h5.806v2.113a2.9 2.9 0 00-1.935 2.725 2.9 2.9 0 001.935 2.725v.178h-5.806v-.178a2.9 2.9 0 001.935-2.725 2.9 2.9 0 00-1.935-2.725zM15.77 17.584l-1.52 3.04-1.27-1.27 1.884-1.883.906.113zm-3.23 11.088l-.927.927-.927-.927.78-7.802.147-.147.147.147.78 7.802zM16.452 4.84v.967h-2.73l.625-3.745a2.898 2.898 0 012.105 2.778zm-5.633-2.904h1.586l-.645 3.871h-.296l-.645-3.87zM6.774 4.84c0-1.322.893-2.428 2.105-2.778l.624 3.745H6.774V4.84zm0 3.87v-.967h9.678v.968a4.844 4.844 0 01-4.84 4.838A4.844 4.844 0 016.775 8.71zm4.839 6.775c.672 0 1.322-.102 1.935-.286v.853l-1.935 1.935-1.936-1.935V15.2a6.734 6.734 0 001.936.285zM8.36 17.47l1.885 1.884-1.27 1.27-1.52-3.041.905-.113zM2.903 34.839a.97.97 0 01-.968-.968V20.836c0-1.46 1.094-2.7 2.544-2.88l.939-.117 3.027 6.053.86-.86-.636 6.36 2.944 2.944 2.944-2.944-.636-6.36.86.86 3.027-6.053.94.117a2.9 2.9 0 011.346.541 4.83 4.83 0 00-2.675 4.322v11.052H5.806V23.226H3.871V33.87a.97.97 0 01-.968.968zm2.903.967h4.84v22.259H6.733l-.928-22.259zm6.775 22.259V35.806h4.837l-.927 22.259h-3.91zm7.742-23.226a.97.97 0 01-.968-.968v-2.114c.304.109.627.178.968.178h.967v1.936a.97.97 0 01-.967.968zm3.913 2.903h4.796v20.323h-3.911l-.885-20.323zm6.732 20.323V37.742h4.796l-.884 20.323h-3.912zm8.71-23.226a.97.97 0 01-.968-.968v-1.936h.967c.341 0 .664-.069.968-.178v2.114a.97.97 0 01-.968.968zm2.903.967h4.838v22.259h-3.91l-.928-22.259zm6.774 22.259V35.806h4.838l-.927 22.259h-3.911zm8.71-24.194a.97.97 0 01-.968.968.97.97 0 01-.968-.968V23.226h-1.935V33.87H42.58V22.819a4.828 4.828 0 00-2.675-4.322c.39-.285.85-.48 1.347-.541l1.267-.16 2.638 6.157 3.23-3.23 3.228 3.23 2.639-6.156 1.266.159a2.907 2.907 0 012.544 2.88v13.035z" fill="#000"/><path d="M47.42 22.258h1.935v1.936h-1.936v-1.936zm0 3.871h1.935v1.935h-1.936V26.13z" fill="#000"/></svg>