<svg width="60" height="60" fill="none" xmlns="http://www.w3.org/2000/svg"><g clip-path="url(#clip0)" fill="#FFAC07"><path d="M29.35 59.803a1.173 1.173 0 001.3 0l10.657-7.105a24.559 24.559 0 0010.959-20.476V8.236c0-.504-.323-.952-.8-1.111L30.372.06a1.176 1.176 0 00-.744 0L8.534 7.125c-.478.16-.8.607-.8 1.11v23.987a24.559 24.559 0 0010.959 20.476l10.657 7.105zM10.078 32.222V9.079L30 2.407 49.922 9.08v23.143a22.22 22.22 0 01-9.915 18.526L30 57.42l-10.007-6.672a22.22 22.22 0 01-9.915-18.526z"/><path d="M29.35 54.17a1.173 1.173 0 001.3 0l8.057-5.372a19.88 19.88 0 008.871-16.575V11.614a1.17 1.17 0 00-.8-1.11L30.374 5.001a1.173 1.173 0 00-.746 0l-16.406 5.501c-.477.16-.8.608-.8 1.111v18.524a1.172 1.172 0 002.345 0v-17.68L30 7.348l15.234 5.108v19.766a17.54 17.54 0 01-7.827 14.625L30 51.786l-7.407-4.939a17.539 17.539 0 01-7.827-14.624v-3.278a1.172 1.172 0 00-2.344 0v3.278a19.88 19.88 0 008.871 16.575l8.057 5.372z"/><path d="M25.17 38.462a3.492 3.492 0 002.486 1.03c.94 0 1.822-.366 2.486-1.03l9.375-9.375a3.513 3.513 0 000-4.971 3.514 3.514 0 00-4.971 0l-6.89 6.89-2.202-2.203a3.513 3.513 0 00-4.97 0 3.513 3.513 0 000 4.972l4.687 4.687zm-3.03-8.001a1.17 1.17 0 011.657 0l3.03 3.03c.458.457 1.2.457 1.658 0l7.718-7.718a1.171 1.171 0 111.656 1.657l-9.375 9.375a1.164 1.164 0 01-.828.344c-.312 0-.607-.123-.828-.344l-4.688-4.688a1.17 1.17 0 010-1.656z"/></g><defs><clipPath id="clip0"><path fill="#fff" d="M0 0h60v60H0z"/></clipPath></defs></svg>