<svg xmlns="http://www.w3.org/2000/svg" xmlns:xlink="http://www.w3.org/1999/xlink"><defs><clipPath id="clip0"><path fill="#fff" transform="translate(.674)" d="M0 0h32.723v30H0z"/></clipPath><clipPath id="clip0"><path fill="#fff" d="M0 0h60v60H0z"/></clipPath><clipPath id="clip0"><path fill="#fff" d="M0 0h60v60H0z"/></clipPath><clipPath id="clip0"><path fill="#fff" d="M0 0h60v60H0z"/></clipPath><clipPath id="clip0"><path fill="#fff" d="M0 0h60v60H0z"/></clipPath><clipPath id="clip0"><path fill="#fff" d="M0 0h60v60H0z"/></clipPath><clipPath id="clip0"><path fill="#fff" d="M0 0h60v60H0z"/></clipPath><clipPath id="clip0"><path fill="#fff" d="M0 0h60v60H0z"/></clipPath><clipPath id="clip0"><path fill="#fff" d="M0 0h60v60H0z"/></clipPath></defs><symbol id="icon-arrow"><path d="M12.103 1L1.305 10.9l10.798 9.899" stroke="#000"/></symbol><symbol id="icon-badge"><path d="M59.832 49.449l-7.308-10.966 1.28-.4a1 1 0 00.635-1.317l-2.247-5.779 4.576-4.255a1 1 0 000-1.464l-4.576-4.254 2.248-5.779a1 1 0 00-.634-1.317l-6.016-1.876-.526-6.17a1.006 1.006 0 00-.373-.7.992.992 0 00-.761-.209l-6.261.867L36.663.486a1 1 0 00-1.408-.32L30 3.623 24.746.165a1 1 0 00-1.408.321l-3.206 5.346-6.26-.867a1 1 0 00-1.134.906l-.527 6.17-6.01 1.876a1 1 0 00-.635 1.317l2.247 5.78-4.58 4.254a1 1 0 000 1.464l4.575 4.254-2.248 5.779a1 1 0 00.634 1.317l1.327.413L.15 50.475a1 1 0 001.03 1.509l10.033-1.824 1.808 9.04a1 1 0 00.786.785A.985.985 0 0014 60a1 1 0 00.832-.445l7.016-10.524 1.49 2.483A1 1 0 0024.2 52a1 1 0 00.55-.165l5.25-3.46 5.254 3.46a1 1 0 001.408-.321l1.49-2.484 7.016 10.525a1 1 0 001.812-.36l1.82-9.118L58.91 51a1 1 0 00.922-1.551zM14.51 56.436L12.98 48.8a1 1 0 00-1.159-.788l-8.794 1.6L9.49 39.11l2.72.848.525 6.17a1 1 0 001.134.909l6.261-.867.58.966-6.2 9.3zm23.983-11.86l-3.01 5.019-4.933-3.252a1 1 0 00-1.1 0l-4.934 3.248-3.01-5.02a1 1 0 00-.995-.475l-5.87.812-.495-5.79a1 1 0 00-.7-.87l-5.633-1.757 2.1-5.412a1 1 0 00-.25-1.095L5.382 26l4.284-3.984a1 1 0 00.251-1.095l-2.1-5.414 5.635-1.757a1 1 0 00.7-.87l.494-5.789 5.871.813a1 1 0 001-.477l3.01-5.018 4.922 3.248a1 1 0 001.1 0l4.934-3.248 3.01 5.02c.208.342.598.529.995.475l5.871-.812.494 5.79a1 1 0 00.7.87l5.635 1.757-2.106 5.412a1 1 0 00.25 1.095L54.619 26l-4.285 3.984a1 1 0 00-.251 1.095l2.1 5.414-5.63 1.757a1 1 0 00-.7.87l-.494 5.789-5.87-.81a1.007 1.007 0 00-.995.478zM48.09 48a1.014 1.014 0 00-1.07.8l-1.527 7.633-6.2-9.3.578-.964 6.26.867a1 1 0 001.134-.906l.527-6.17 2.745-.856 6.47 9.71L48.09 48z" fill="#000"/><path d="M45 21a3 3 0 00-3-3h-7v-4a4.995 4.995 0 00-4.99-5H30a1 1 0 00-1 1v4.764l-1.8 3.592-3.218 2.575a.993.993 0 00-.982-.93h-7a1 1 0 00-1 1V36a1 1 0 001 1h7a1 1 0 001-1h15a3.015 3.015 0 003-3 2.965 2.965 0 00-.4-1.468c.184-.115.355-.251.508-.406a2.946 2.946 0 00.492-3.594 2.8 2.8 0 00.508-.406 2.946 2.946 0 00.492-3.594c.184-.115.355-.251.508-.406A2.944 2.944 0 0045 21zM22 35h-5V22h5v13zm20.694-13.288A.957.957 0 0142 22h-4v2h3a1 1 0 011 1c0 .27-.11.527-.306.712A.956.956 0 0141 26h-4v2h3a1 1 0 011 1c0 .27-.11.527-.306.712A.957.957 0 0140 30h-4v2h3a1 1 0 011 1c0 .27-.11.527-.306.712A.957.957 0 0139 34H24V23.48l4.625-3.699a.996.996 0 00.27-.334l2-4A1 1 0 0031 15v-3.829a2.99 2.99 0 012 2.83v5a1 1 0 001 1h8a1 1 0 011 1 .974.974 0 01-.306.711z" fill="#000"/></symbol><symbol id="icon-blueprint"><path d="M57.95 18.618h-9.39l5.607-6.24c.311-.348.469-.795.444-1.26a1.734 1.734 0 00-.576-1.204l-2.411-2.165a1.746 1.746 0 00-2.463.131l-9.645 10.738H22.728a.879.879 0 000 1.758h15.209l-3.921 4.365a1.734 1.734 0 00-.428 1.422l-1.348 3.644a1.39 1.39 0 00.377 1.526 1.391 1.391 0 001.557.212l3.482-1.732c.022.001.044.004.066.004a1.734 1.734 0 001.3-.58l7.96-8.86h10.967c.162 0 .293.13.293.292v33.863a.293.293 0 01-.293.293h-6.394a.879.879 0 100 1.757h6.394c1.13 0 2.051-.92 2.051-2.05V20.669c0-1.131-.92-2.05-2.05-2.05zm-5.1-7.405l-1.044 1.161-2.39-2.147 1.044-1.162 2.39 2.148zm-4.61.322l.542.486-12.908 14.371-.541-.487 12.908-14.37zM34.846 27.831l1.016.912-1.657.824.641-1.736zm2.878.222l-.542-.486 12.91-14.371.54.486-12.908 14.37z" fill="#000"/><path d="M47.728 54.825H8.197a6.446 6.446 0 01-6.44-6.44v-.464a6.445 6.445 0 016.44-6.438h1.806c1.13 0 2.05-.92 2.05-2.051V20.376h6.848a.879.879 0 000-1.758h-6.848v-3.052a.879.879 0 10-1.757 0v23.866a.293.293 0 01-.293.293H8.196a8.186 8.186 0 00-6.438 3.13V11.712a6.446 6.446 0 016.439-6.439h1.806c.161 0 .293.132.293.293v6.173a.879.879 0 101.757 0V5.566c0-1.13-.92-2.05-2.05-2.05H8.197C3.677 3.516 0 7.192 0 11.712v36.674c0 4.52 3.677 8.196 8.197 8.196h39.53a.879.879 0 100-1.758z" fill="#000"/><path d="M46.898 27.897c-3.59 0-6.534 2.814-6.745 6.352h-4.046a.88.88 0 00-.879.88v10.039a.88.88 0 00.88.879h10.039a.879.879 0 00.879-.88v-3.756c3.668-.07 6.63-3.072 6.63-6.756a6.766 6.766 0 00-6.758-6.758zm-1.63 11.485a5.02 5.02 0 01-3.183-3.375h3.183v3.375zm-8.282 4.907v-8.282h3.29a6.78 6.78 0 004.992 5.207v3.075h-8.282zm10.04-4.636v-4.525a.88.88 0 00-.879-.879h-4.231a5.006 5.006 0 014.982-4.594 5.006 5.006 0 015.001 5 5.006 5.006 0 01-4.873 4.998z" fill="#000"/><path d="M50.163 42.02a.879.879 0 100 1.759h1.955a.879.879 0 100-1.758h-1.955zm2.834 3.148a.879.879 0 00-.879-.879h-1.955a.879.879 0 100 1.758h1.955a.879.879 0 00.88-.879zM16.055 27.547h1.406a.879.879 0 100-1.758h-1.406a.88.88 0 000 1.758zm0 2.561h6.784a.879.879 0 100-1.758h-6.784a.879.879 0 000 1.758zm5.378-2.561h1.406a.879.879 0 100-1.758h-1.406a.88.88 0 000 1.758zm6.785-1.757H26.81a.88.88 0 000 1.757h1.407a.879.879 0 100-1.758zm-12.163 6.859h6.784a.879.879 0 100-1.758h-6.784a.879.879 0 000 1.758zm-.879 1.662c0 .486.393.88.879.88H26.81a.879.879 0 100-1.759H16.055a.88.88 0 00-.88.88zm13.92 2.542a.879.879 0 00-.878-.88H16.055a.88.88 0 000 1.759h12.163a.879.879 0 00.878-.88zm-9.74 4.094a.879.879 0 00-.88-.879h-2.421a.879.879 0 00-.88.88v2.421a.88.88 0 00.88.879h2.422a.879.879 0 00.879-.879v-2.422zm-1.758 1.543h-.664v-.664h.664v.664zm7.568-1.543a.879.879 0 00-.878-.879h-2.422a.879.879 0 00-.88.88v2.421a.88.88 0 00.88.879h2.422a.879.879 0 00.878-.879v-2.422zM23.41 42.49h-.665v-.664h.665v.664zm7.568-1.543a.879.879 0 00-.88-.879h-2.421a.879.879 0 00-.879.88v2.421c0 .486.393.879.879.879h2.422a.879.879 0 00.879-.879v-2.422zM29.22 42.49h-.664v-.664h.664v.664zm-10.743 3.75h-2.422a.879.879 0 00-.88.88v2.421a.88.88 0 00.88.879h2.422a.879.879 0 00.879-.879v-2.422a.879.879 0 00-.88-.879zm-.88 2.422h-.663v-.664h.664v.664zm6.691-2.422h-2.422a.879.879 0 00-.88.88v2.421a.88.88 0 00.88.879h2.422a.879.879 0 00.878-.879v-2.422a.879.879 0 00-.878-.879zm-.88 2.422h-.664v-.664h.665v.664zm4.269 1.758h2.422a.879.879 0 00.879-.879v-2.422a.88.88 0 00-.88-.879h-2.421a.879.879 0 00-.879.879v2.422c0 .486.393.879.879.879zm.879-2.422h.664v.664h-.664v-.664z" fill="#000"/></symbol><symbol id="icon-border"><path d="M2 27v25h50V2H32" stroke="#FFAC07" stroke-width="4"/></symbol><symbol id="icon-ckeck"><g clip-path="url(#clip0)"><path d="M10.327 12.15l-2.29 2.1L15.399 21 31.761 6 29.47 3.9 15.4 16.8l-5.073-4.65zM30.124 15c0 6.6-5.89 12-13.089 12-7.199 0-13.089-5.4-13.089-12s5.89-12 13.09-12c1.308 0 2.453.15 3.599.45l2.618-2.4C21.289.45 19.163 0 17.035 0 8.037 0 .674 6.75.674 15s7.363 15 16.361 15c9 0 16.362-6.75 16.362-15h-3.272z" fill="#FFAC07"/></g></symbol><symbol id="icon-contract"><g clip-path="url(#clip0)" fill="#000"><path d="M59.89 14.228a3 3 0 00-1.4-1.82 3 3 0 00-4.1 1.1l-.5.87a1 1 0 00-1.359.36l-2.54 4.329-.87-.5a1.001 1.001 0 00-1.37.37 1 1 0 00.37 1.36l.87.5-8.498 14.727-2.1 5.61-1 1.869a3 3 0 00.16 3.24l-2.25 2.759-.629-1.58a2 2 0 00-3.57-.28l-.36.61-.34-4a2 2 0 00-3.889-.47l-2.46 7.38a1 1 0 00.63 1.26.867.867 0 00.31.08 1 1 0 00.95-.68l2.45-7.38.35 4.06a2 2 0 003.71.86l.37-.61.62 1.57a2 2 0 003.419.51l2.33-2.95c.257.068.523.101.79.1a3 3 0 002.609-1.48l1-1.67 3.809-4.629 8.588-14.907.87.5a1 1 0 01.37 1.37l-3.999 6.928a.999.999 0 00.32 1.41 1 1 0 001.37-.37l3.999-6.929a2.998 2.998 0 00-1.1-4.099l-.87-.5 2.5-4.33a1 1 0 00-.36-1.359l.5-.87c.41-.7.518-1.537.3-2.32zm-3.77.28a1 1 0 01.61-.47 1.05 1.05 0 01.76.1 1 1 0 01.47.61 1.05 1.05 0 01-.1.76l-.5.87-1.74-1 .5-.87zM42.493 42.422l-.5-.29-1.48-.86 1.42-3.8 3.149 1.82-2.59 3.13zm-3 2.89a1 1 0 01-.3-1.31l.5-.87 1.74 1-.5.86a1 1 0 01-1.44.32zm6.729-7.66l-3.46-1.999 8-13.858 3.459 2-7.999 13.858zm8.998-15.587l-3.459-2 2-3.459 3.46 2-2 3.46zM15.777 44.812l-3.539 3.53-2.12-2.12a1 1 0 10-1.41 1.42l2.12 2.12c.375.372.882.58 1.41.58a2 2 0 001.42-.58l3.529-3.54a1 1 0 00-1.41-1.41z"/><path d="M4 47.502A8.498 8.498 0 0012.497 56a8.498 8.498 0 008.498-8.498 1 1 0 00-2 0 6.499 6.499 0 11-6.498-6.5 6.443 6.443 0 013.9 1.3 1 1 0 101.199-1.599 8.5 8.5 0 00-13.598 6.799zM35.994 8.009a1 1 0 100-2H9.998a1 1 0 00-1 1v4a1 1 0 001 .999h25.996a1 1 0 100-2H10.998v-2h24.996zm-22.996 5.999a1 1 0 100 2h19.997a1 1 0 100-2H12.998zm25.995 6.998H16.997a1 1 0 000 2h21.996a1 1 0 100-2zm-9.998 6.999a1 1 0 00-1-1H8a1 1 0 100 2h19.996a1 1 0 001-1zm9.998-1h-6.999a1 1 0 100 2h7a1 1 0 100-2zm-20.996 6.999a1 1 0 100-2H7.999a1 1 0 000 2h9.998zm3.999 0h6.999a1 1 0 100-2h-6.999a1 1 0 000 2z"/><path d="M44.992 46.002a1 1 0 00-1 1V57a1 1 0 01-1 1H3a1 1 0 01-1-1V3.01a1 1 0 011-1h39.994a1 1 0 011 1v18.777a1 1 0 002 0V3.01a3 3 0 00-3-3H2.999A3 3 0 000 3.01V57a3 3 0 003 3h39.993a3 3 0 003-3v-9.998a1 1 0 00-1-1z"/></g></symbol><symbol id="icon-description"><path d="M4 30h22c.85 0 1.5-.65 1.5-1.5V3c0-.85-.65-1.5-1.5-1.5h-6c0-.85-.65-1.5-1.5-1.5h-7c-.85 0-1.5.65-1.5 1.5H4c-.85 0-1.5.65-1.5 1.5v25.5c0 .85.65 1.5 1.5 1.5zm7-28.5c0-.3.2-.5.5-.5h7c.3 0 .5.2.5.5V4c0 .3-.2.5-.5.5h-7c-.3 0-.5-.2-.5-.5V1.5zM3.5 3c0-.3.2-.5.5-.5h6V4c0 .85.65 1.5 1.5 1.5h7c.65 0 1.2-.4 1.4-1h4.6v19H21V27H5.5V4.5H9v-1H4.5V28h17.2l3.8-3.8V3.5H20v-1h6c.3 0 .5.2.5.5v25.5c0 .3-.2.5-.5.5H4c-.3 0-.5-.2-.5-.5V3zm20.3 21.5L22 26.3v-1.8h1.8z" fill="#FFAC07"/><path d="M13 2.5h4v1h-4v-1zm-6 14h16v-8H7v8zm1-7h14v6H8v-6zm3.5-3h7v1h-7v-1zM7 17.5h3.5v1H7v-1zm4.5 0H23v1H11.5v-1zm-4.5 2h6.5v1H7v-1zm7.5 0H23v1h-8.5v-1zm-7.5 2h9.5v1H7v-1zm10.5 0H23v1h-5.5v-1zM7 23.5h12.5v1H7v-1z" fill="#FFAC07"/></symbol><symbol id="icon-engeneering"><g clip-path="url(#clip0)" fill="#FFAC07"><path d="M45.904 20.544a5.988 5.988 0 10-5.987-5.987 5.993 5.993 0 005.987 5.987zm0-1.995a3.992 3.992 0 01-3.85-2.994h7.7a3.992 3.992 0 01-3.85 2.994zm0-7.984a3.992 3.992 0 013.85 2.994h-7.7a3.992 3.992 0 013.85-2.994z"/><path d="M58.877 17.438v-3.879h-2.564c-.013-.13-.01-.256-.027-.387L60 11.028l-3.992-6.914-3.717 2.147a10.338 10.338 0 00-2.395-1.384V.586h-7.983v4.291c-.857.353-1.663.82-2.395 1.387L35.8 4.114l-3.991 6.914 3.709 2.14c-.017.13-.014.261-.026.391H4.99v24.538A7.992 7.992 0 000 45.493v7.983c0 3.581 2.807 5.988 6.985 5.988h11.976c4.178 0 6.985-2.407 6.985-5.988v-.862h6.2l4.002 4.155c.007.008.017.01.024.018.056.047.116.088.18.123a1.1 1.1 0 00.158.094c.009 0 .014.01.023.013l6.31 2.235a.998.998 0 001.285-1.24l-1.686-5.398h8.594l7.842-8.594V20.03L60 18.084l-1.123-.647zm-1.996-1.153l-.59-.34c.017-.13.014-.26.026-.39h.564v.73zm-22.345-5.987l1.996-3.457 3.213 1.855.538-.478a8.414 8.414 0 012.943-1.704l.682-.228V2.582H47.9v3.704l.683.228a8.42 8.42 0 012.943 1.705l.538.477 3.213-1.855 1.996 3.457-3.209 1.852.144.704a8.378 8.378 0 01.007 3.409l-.144.705 2.81 1.622v.898l-1.604 2.78-3.214-1.855-.538.477a8.414 8.414 0 01-2.942 1.705l-.683.233v3.704h-3.99v-3.704l-.683-.228a8.413 8.413 0 01-2.943-1.705l-.538-.477-3.213 1.855-1.996-3.457 3.202-1.848-.144-.706a8.56 8.56 0 010-3.41l.144-.706-3.202-1.848zM1.996 45.493a5.993 5.993 0 015.987-5.988v4.134c0 2.673 1.79 4.847 3.992 4.847h1.996c2.201 0 3.992-2.174 3.992-4.847v-4.134a5.994 5.994 0 015.987 5.988v5.987H1.996v-5.987zm11.975-.998v-4.99h1.996v4.134c0 1.546-.914 2.851-1.996 2.851h-1.996c-1.082 0-1.996-1.305-1.996-2.85v-4.135h1.996v4.99h1.996zm4.99 12.973H6.985c-2.411 0-4.99-1.05-4.99-3.992H23.95c0 2.943-2.578 3.992-4.99 3.992zm6.985-6.85V46.18l4.277 4.439h-4.277zm10.946 4.043l-5.54-5.748 2.874-2.769 5.54 5.748-2.874 2.77zm-6.925-7.184l-1.385-1.438 2.875-2.77 1.383 1.437-2.873 2.77zm-2.77-2.875l-.692-.718a1.995 1.995 0 011.437-3.381h.038c.528.01 1.03.23 1.397.61l.693.72-2.872 2.77zm11.522 11.07l1.986-1.915.921 2.943-2.907-1.029zm13.173-6.956V44.63h3.726l-3.726 4.085zm4.99-6.08h-6.986v7.983h-8.582l-6.34-6.578-4.158-4.312a3.965 3.965 0 00-6.449 1.018 7.967 7.967 0 00-6.404-3.238h-9.98a8.066 8.066 0 00-.998.069V15.555h28.507c.012.13.009.26.026.39l-3.71 2.14L35.8 25l3.718-2.146a10.37 10.37 0 002.395 1.384v4.29h7.983v-4.29c.857-.354 1.662-.82 2.395-1.387l3.718 2.146.873-1.51v19.15z"/><path d="M25.946 33.518h1.996v1.995h-1.996v-1.995zm-12.973 0h1.996v1.995h-1.996v-1.995zm0-11.975h1.996v1.995h-1.996v-1.995zm0 3.991h1.996v1.996h-1.996v-1.996zm0 3.992h1.996v1.996h-1.996v-1.996zm19.958 8.981h1.996v1.996h-1.996v-1.996zM28.94 21.543h1.995v1.995H28.94v-1.995zm-3.992 0h1.996v1.995h-1.996v-1.995zm-3.992 0h1.996v1.995h-1.996v-1.995zm-3.991 0h1.995v1.995h-1.995v-1.995zm27.941 8.98h1.996v1.996h-1.996v-1.996zm0 3.992h1.996v1.996h-1.996v-1.996zm0 3.992h1.996v1.996h-1.996v-1.996zm-3.991 0h1.995v1.996h-1.995v-1.996zm-3.992 0h1.996v1.996h-1.996v-1.996z"/></g></symbol><symbol id="icon-engineer"><g clip-path="url(#clip0)" fill="#000"><path d="M60 40.645V25.488a4.836 4.836 0 00-3.973-4.76l-6.672-1.213v-1.867a7.727 7.727 0 002.903-6.034V9.678h1.935V7.742h-1.935v-.968A6.782 6.782 0 0045.484 0h-1.936a6.782 6.782 0 00-6.774 6.774v.968H34.84v1.935h1.935v1.936a7.718 7.718 0 002.638 5.806H31.1l-1.014-1.774c.1-.22.194-.44.277-.663l2.54-.695V8.939l-2.54-.695a9.829 9.829 0 00-.277-.663l1.308-2.288-3.781-3.782-2.291 1.306c-.22-.1-.44-.194-.662-.277L23.965 0h-5.349l-.694 2.54a9.683 9.683 0 00-.662.277l-2.291-1.306-3.78 3.782 1.307 2.288a9.69 9.69 0 00-.277.663l-2.542.695v5.348l2.54.695c.084.222.177.444.278.663l-1.014 1.774H4.84A4.844 4.844 0 000 22.26v32.9A4.844 4.844 0 004.839 60h6.774v-7.742H22.03l3.87 1.935h29.261A4.844 4.844 0 0060 49.355a4.844 4.844 0 00-4.839-4.839h-2.903v-3.87H60zm-1.935-15.157V38.71h-3.871v-9.678h-1.936v9.678H36.774v-9.678H34.84v9.678h-3.871V25.488a2.902 2.902 0 012.383-2.856l3.799-.692 1.955 7.82 5.411-4.327 5.412 4.33 1.954-7.82 3.8.69a2.9 2.9 0 012.383 2.855zm-17.746-4.122l2.747 2.747-2.817 2.254-1.192-4.772 1.262-.23zm9.656.23l-1.192 4.771-2.817-2.254 2.747-2.747 1.262.23zm-2.556-1.674l-2.903 2.903-2.903-2.903v-1.137a7.689 7.689 0 005.806 0v1.137zm2.904-13.148v.968h-2.775l.623-4.988a4.835 4.835 0 012.152 4.02zm-4.84-4.839c.284 0 .56.037.83.085l-.716 5.722h-2.162L42.72 2.02c.27-.048.545-.085.828-.085h1.936zm-6.773 4.84c0-1.675.855-3.152 2.151-4.02l.623 4.987H38.71v-.968zm0 4.838V9.677h11.613v1.936a5.812 5.812 0 01-5.807 5.806 5.812 5.812 0 01-5.806-5.806zm-24.265 3.61a7.68 7.68 0 01-.553-1.325l-.156-.508-2.123-.58v-2.394l2.122-.58.156-.509a7.75 7.75 0 01.553-1.325l.25-.47-1.093-1.915 1.692-1.694 1.916 1.093.469-.248a7.76 7.76 0 011.327-.553l.507-.157.582-2.123h2.393l.582 2.123.507.157a7.73 7.73 0 011.327.553l.469.248 1.915-1.093 1.693 1.694-1.094 1.915.25.47c.229.43.415.877.554 1.325l.156.508 2.122.581v2.394l-2.122.58-.156.508c-.14.449-.325.895-.554 1.325l-.25.47.985 1.726H13.71l.985-1.725-.25-.471zM9.677 58.065H4.84a2.907 2.907 0 01-2.904-2.904c0-1.6 1.303-2.903 2.904-2.903h4.838v5.806zm17.42-11.613h21.29v5.806h-21.29v-5.806zM25.16 51.66l-4.61-2.305 4.61-2.305v4.61zm32.903-2.305c0 1.6-1.302 2.903-2.903 2.903h-4.838v-5.806h4.838c1.6 0 2.904 1.302 2.904 2.903zm-7.741-4.839H25.9l-9.678 4.839 1.936.968H4.839a4.79 4.79 0 00-2.904.992V22.258c0-1.6 1.303-2.903 2.904-2.903h34.838v.16l-6.672 1.213a4.837 4.837 0 00-3.973 4.76v15.157h21.29v3.871z"/><path d="M27.097 11.613a5.812 5.812 0 00-5.807-5.807 5.812 5.812 0 00-5.806 5.807 5.812 5.812 0 005.806 5.806 5.812 5.812 0 005.807-5.806zm-5.807 3.87a3.875 3.875 0 01-3.87-3.87 3.875 3.875 0 013.87-3.871 3.875 3.875 0 013.871 3.87 3.875 3.875 0 01-3.87 3.872zM3.871 46.452h11.613v1.935H3.87v-1.935zM17.42 21.29a9.641 9.641 0 00-9.244 6.808L3.87 23.793v20.723h20.723l-4.305-4.305a9.648 9.648 0 006.808-9.243c0-5.337-4.341-9.678-9.678-9.678zM5.805 42.58V28.466l14.116 14.116H5.806zm12.872-3.98l-8.89-8.89a7.708 7.708 0 017.631-6.484c4.27 0 7.742 3.473 7.742 7.742a7.712 7.712 0 01-6.483 7.631z"/></g></symbol><symbol id="icon-engineers"><path d="M55.761 16.035l-3.503-.438v-1.336a6.767 6.767 0 002.903-5.551v-.968h1.936V5.806H55.16V4.84A4.844 4.844 0 0050.323 0h-3.871a4.844 4.844 0 00-4.84 4.839v.967h-1.935v1.936h1.936v.968a6.764 6.764 0 002.903 5.55v1.337l-3.503.438a4.843 4.843 0 00-3.277 1.916l-3.865-.43v-1.325a6.767 6.767 0 002.903-5.55v-.969h1.936V7.742h-1.936v-.968a4.844 4.844 0 00-4.838-4.839h-3.872a4.844 4.844 0 00-4.838 4.84v.967H21.29v1.935h1.936v.968a6.764 6.764 0 002.903 5.551v1.325l-3.865.43a4.847 4.847 0 00-3.277-1.916l-3.503-.438v-1.336a6.767 6.767 0 002.903-5.551v-.968h1.936V5.806h-1.936V4.84A4.844 4.844 0 0013.548 0h-3.87a4.844 4.844 0 00-4.84 4.839v.967H2.904v1.936H4.84v.968a6.764 6.764 0 002.903 5.55v1.337l-3.503.438A4.846 4.846 0 000 20.836v13.035c0 1.6 1.303 2.903 2.903 2.903a2.87 2.87 0 001.01-.192L4.878 60h13.47l.975-23.414c.313.115.646.188 1 .188a2.88 2.88 0 001.936-.755v.797L23.266 60h13.467l1.009-23.226v-.754a2.88 2.88 0 001.935.754c.358 0 .695-.074 1.01-.192L41.654 60h13.469l.975-23.414c.313.115.646.188 1 .188 1.6 0 2.903-1.303 2.903-2.903V20.836c0-2.434-1.822-4.5-4.239-4.8zm-4.122 1.436l.617.077-1.292 3.016-1.209-1.21 1.884-1.883zm1.587-12.632v.967h-2.73l.625-3.745a2.898 2.898 0 012.105 2.778zm-5.632-2.904h1.585l-.645 3.871h-.296l-.644-3.87zM43.548 4.84c0-1.322.893-2.428 2.105-2.778l.624 3.745h-2.729V4.84zm0 3.87v-.967h9.678v.968a4.844 4.844 0 01-4.839 4.838 4.844 4.844 0 01-4.839-4.838zm4.84 6.775a6.73 6.73 0 001.935-.286v.853l-1.936 1.935-1.935-1.935V15.2a6.734 6.734 0 001.935.285zm-3.253 1.987l1.884 1.884-1.21 1.209-1.291-3.016.617-.077zM34.839 6.774v.968h-2.73l.625-3.745a2.898 2.898 0 012.105 2.777zm-5.632-2.903h1.585l-.645 3.87h-.296l-.644-3.87zM25.16 6.774c0-1.322.893-2.428 2.105-2.777l.624 3.745H25.16v-.968zm0 3.871v-.968h9.678v.968A4.844 4.844 0 0130 15.484a4.844 4.844 0 01-4.839-4.839zM30 17.42a6.73 6.73 0 001.936-.285v.735L30 19.16l-1.936-1.29v-.735A6.73 6.73 0 0030 17.42zm-3.147 1.969L30 21.486l3.147-2.098 4.916.546a2.9 2.9 0 012.582 2.885v6.213a.97.97 0 01-.968.968h-5.806a.97.97 0 01-.968-.968.97.97 0 01.968-.968h4.839v-5.806h-1.936v3.871H34.84v-3.87h-9.68v3.87h-1.935v-3.87H21.29v5.805h4.839a.97.97 0 01.968.968.97.97 0 01-.968.968h-5.806a.97.97 0 01-.968-.968V22.82a2.9 2.9 0 012.582-2.885l4.916-.546zm-2.66 16.418v-3.87h.968v1.935h9.678v-1.936h.967l.001 3.871H24.193zm2.904-9.499v-2.113h5.806v2.113a2.9 2.9 0 00-1.935 2.725 2.9 2.9 0 001.935 2.725v.178h-5.806v-.178a2.9 2.9 0 001.935-2.725 2.9 2.9 0 00-1.935-2.725zM15.77 17.584l-1.52 3.04-1.27-1.27 1.884-1.883.906.113zm-3.23 11.088l-.927.927-.927-.927.78-7.802.147-.147.147.147.78 7.802zM16.452 4.84v.967h-2.73l.625-3.745a2.898 2.898 0 012.105 2.778zm-5.633-2.904h1.586l-.645 3.871h-.296l-.645-3.87zM6.774 4.84c0-1.322.893-2.428 2.105-2.778l.624 3.745H6.774V4.84zm0 3.87v-.967h9.678v.968a4.844 4.844 0 01-4.84 4.838A4.844 4.844 0 016.775 8.71zm4.839 6.775c.672 0 1.322-.102 1.935-.286v.853l-1.935 1.935-1.936-1.935V15.2a6.734 6.734 0 001.936.285zM8.36 17.47l1.885 1.884-1.27 1.27-1.52-3.041.905-.113zM2.903 34.839a.97.97 0 01-.968-.968V20.836c0-1.46 1.094-2.7 2.544-2.88l.939-.117 3.027 6.053.86-.86-.636 6.36 2.944 2.944 2.944-2.944-.636-6.36.86.86 3.027-6.053.94.117a2.9 2.9 0 011.346.541 4.83 4.83 0 00-2.675 4.322v11.052H5.806V23.226H3.871V33.87a.97.97 0 01-.968.968zm2.903.967h4.84v22.259H6.733l-.928-22.259zm6.775 22.259V35.806h4.837l-.927 22.259h-3.91zm7.742-23.226a.97.97 0 01-.968-.968v-2.114c.304.109.627.178.968.178h.967v1.936a.97.97 0 01-.967.968zm3.913 2.903h4.796v20.323h-3.911l-.885-20.323zm6.732 20.323V37.742h4.796l-.884 20.323h-3.912zm8.71-23.226a.97.97 0 01-.968-.968v-1.936h.967c.341 0 .664-.069.968-.178v2.114a.97.97 0 01-.968.968zm2.903.967h4.838v22.259h-3.91l-.928-22.259zm6.774 22.259V35.806h4.838l-.927 22.259h-3.911zm8.71-24.194a.97.97 0 01-.968.968.97.97 0 01-.968-.968V23.226h-1.935V33.87H42.58V22.819a4.828 4.828 0 00-2.675-4.322c.39-.285.85-.48 1.347-.541l1.267-.16 2.638 6.157 3.23-3.23 3.228 3.23 2.639-6.156 1.266.159a2.907 2.907 0 012.544 2.88v13.035z" fill="#000"/><path d="M47.42 22.258h1.935v1.936h-1.936v-1.936zm0 3.871h1.935v1.935h-1.936V26.13z" fill="#000"/></symbol><symbol id="icon-insurance"><g clip-path="url(#clip0)" fill="#000"><path d="M6 11h6a1 1 0 100-2H6a1 1 0 100 2zm11 0h9a1 1 0 100-2h-9a1 1 0 100 2zM6 22h32a1 1 0 100-2H6a1 1 0 100 2zm0 4h14a1 1 0 100-2H6a1 1 0 100 2zm0 8h14a1 1 0 100-2H6a1 1 0 100 2zm0 8h14a1 1 0 100-2H6a1 1 0 100 2zm0 8h14a1 1 0 100-2H6a1 1 0 100 2z"/><path d="M59.4 29.13L48 24.207V3a3 3 0 00-3-3H7a3 3 0 00-3 3v1H3a3 3 0 00-3 3v50a3 3 0 003 3h38a2.992 2.992 0 002.145-.913l.82.583c.62.44 1.45.44 2.07 0l9.675-6.887A10.185 10.185 0 0060 44.509V30.048a1 1 0 00-.6-.918zM6 3a1 1 0 011-1h38a1 1 0 011 1v20.343l-.6-.261a1 1 0 00-.792 0l-.6.261V17c0-.022-.011-.043-.013-.065a.942.942 0 00-.048-.246c-.007-.023-.006-.047-.015-.069-.009-.022-.016-.022-.021-.034a1.001 1.001 0 00-.2-.293l-12-12a1 1 0 00-.293-.2c-.013-.006-.022-.016-.034-.021-.012-.005-.046-.008-.068-.015a1 1 0 00-.249-.049C31.042 4.011 31.022 4 31 4H6V3zm26 4.414L40.586 16H33a1 1 0 01-1-1V7.414zM41 58H3a1 1 0 01-1-1V7a1 1 0 011-1h27v9a3 3 0 003 3h9v6.207L38.781 25.6A.977.977 0 0039 25a1 1 0 00-1-1H24a1 1 0 100 2h13.849l-4.63 2H6a1 1 0 100 2h24.007c0 .016-.007.031-.007.048V32h-6a1 1 0 100 2h6v2H6a1 1 0 100 2h24v2h-6a1 1 0 100 2h6v2H6a1 1 0 100 2h24.125c.1.682.269 1.352.506 2H24a1 1 0 100 2h7.641a10.232 10.232 0 001.681 2H6a1 1 0 100 2h30l5.448 3.878A.975.975 0 0141 58zm17-13.491a8.182 8.182 0 01-3.449 6.644L45 57.952l-9.551-6.8A8.182 8.182 0 0132 44.509v-13.8l1.81-.782.019-.008L45 25.089l13 5.616v13.804z"/><path d="M44.6 27.44l-10 4.32a1 1 0 00-.6.917V44.51a6.178 6.178 0 002.608 5.014l7.812 5.561a1 1 0 001.16 0l7.812-5.56A6.18 6.18 0 0056 44.508V32.677a1 1 0 00-.6-.918l-10-4.32a1 1 0 00-.8 0zm9.4 5.9v11.17a4.178 4.178 0 01-1.769 3.39L45 53.042l-7.231-5.148A4.175 4.175 0 0136 44.51V33.334l9-3.887 9 3.892z"/><path d="M39.6 42.2a1 1 0 00-1.2 1.6l4 3a1 1 0 001.38-.175l8-10a1 1 0 00-1.561-1.25l-7.394 9.244-3.225-2.42z"/></g></symbol><symbol id="icon-list"><path d="M48.75 3.75h-9.377a4.683 4.683 0 00-3.748-1.875h-2.39A3.748 3.748 0 0030 0a3.748 3.748 0 00-3.235 1.875h-2.39a4.68 4.68 0 00-3.747 1.875H11.25a4.693 4.693 0 00-4.688 4.688v46.874A4.693 4.693 0 0011.25 60h37.5a4.693 4.693 0 004.688-4.688V8.438A4.693 4.693 0 0048.75 3.75zM21.562 6.563a2.816 2.816 0 012.813-2.813h2.985c.396 0 .75-.25.883-.623A1.874 1.874 0 0130 1.875c.785 0 1.49.503 1.757 1.252a.938.938 0 00.883.623h2.985a2.816 2.816 0 012.813 2.813v2.812H21.561V6.562zm30 48.75a2.816 2.816 0 01-2.812 2.812h-37.5a2.816 2.816 0 01-2.813-2.813V8.438a2.816 2.816 0 012.813-2.813h8.532a4.695 4.695 0 00-.095.938v3.75c0 .517.42.937.938.937h18.75c.518 0 .938-.42.938-.938v-3.75c0-.32-.033-.634-.095-.937h8.532a2.816 2.816 0 012.813 2.813v46.874z" fill="#000"/><path d="M48.75 7.5h-5.625a.938.938 0 000 1.875h4.688v45H12.187v-45h4.688a.938.938 0 000-1.875H11.25a.938.938 0 00-.938.938v46.874c0 .518.42.938.938.938h37.5c.518 0 .938-.42.938-.938V8.438a.938.938 0 00-.938-.938zM30 3.75c-.247 0-.489.1-.663.274a.943.943 0 000 1.327.943.943 0 001.326 0 .943.943 0 000-1.327A.945.945 0 0030 3.75z" fill="#000"/><path d="M15.275 21.837a.937.937 0 000 1.326l2.812 2.812a.934.934 0 001.326 0l4.688-4.687a.937.937 0 10-1.326-1.326l-4.025 4.025-2.15-2.15a.937.937 0 00-1.325 0zm8.825 8.438a.937.937 0 00-1.325 0l-4.025 4.024-2.15-2.15a.937.937 0 10-1.325 1.326l2.812 2.813a.934.934 0 001.326 0l4.688-4.688a.937.937 0 000-1.325zm-1.326 10.312l-4.024 4.025-2.15-2.15a.937.937 0 10-1.325 1.326l2.812 2.812a.934.934 0 001.326 0l4.688-4.687a.937.937 0 10-1.326-1.326zm5.351-17.149h15.938a.938.938 0 000-1.875H28.124a.938.938 0 000 1.875zm0 10.312h15.938a.938.938 0 000-1.875H28.124a.938.938 0 000 1.875zm0 10.313h15.938a.938.938 0 000-1.876H28.124a.938.938 0 000 1.876z" fill="#000"/></symbol><symbol id="icon-maintenance"><g clip-path="url(#clip0)" fill="#000"><path d="M56.914 23.043l-5.162-.497a21.998 21.998 0 00-2.62-6.226l3.29-3.971a.98.98 0 00-.062-1.319l-5.583-5.583a.98.98 0 00-1.318-.061l-3.975 3.29a22.628 22.628 0 00-6.222-2.621L34.764.886A.98.98 0 0033.788 0h-7.63a.98.98 0 00-.976.886l-.498 5.169a22.612 22.612 0 00-6.223 2.622l-3.975-3.292a.98.98 0 00-1.318.06L7.585 11.03a.98.98 0 00-.061 1.319l3.289 3.971a21.99 21.99 0 00-2.623 6.226l-5.158.498a.975.975 0 00-.881.976v7.915a.975.975 0 00.88.975l5.165.498a22.615 22.615 0 002.62 6.223l-3.293 3.974a.98.98 0 00.106 1.36l4.234 3.745a.981.981 0 001.454-.173l6.086-8.733a.981.981 0 00-.111-1.254c-5.84-5.84-5.84-15.307 0-21.146 5.84-5.84 15.307-5.84 21.146 0 5.84 5.84 5.84 15.307 0 21.146a.98.98 0 00-.102 1.267l6.3 8.732a.98.98 0 001.444.161l4.236-3.744a.981.981 0 00.106-1.36L49.13 39.63a22.614 22.614 0 002.622-6.223l5.162-.498a.975.975 0 00.88-.975v-7.916a.975.975 0 00-.88-.976zm-1.081 8l-4.973.48a.977.977 0 00-.86.765 20.675 20.675 0 01-2.9 6.884.98.98 0 00.066 1.162l3.14 3.791-2.713 2.399-5.19-7.195c6.01-6.63 5.817-16.916-.578-23.312-6.595-6.595-17.325-6.595-23.92 0-6.399 6.399-6.588 16.693-.569 23.322l-4.998 7.173-2.7-2.387 3.14-3.791a.981.981 0 00.066-1.163 20.7 20.7 0 01-2.902-6.883.973.973 0 00-.857-.765l-4.973-.48V24.91l4.973-.48a.976.976 0 00.86-.769 20.073 20.073 0 012.898-6.873.981.981 0 00-.063-1.168l-3.177-3.835 4.32-4.32 3.836 3.175a.979.979 0 001.162.066 20.689 20.689 0 016.883-2.902.98.98 0 00.764-.863l.48-4.98h5.85l.48 4.98a.98.98 0 00.763.863 20.687 20.687 0 016.884 2.902.98.98 0 001.162-.065l3.835-3.176 4.32 4.32-3.176 3.835a.98.98 0 00-.062 1.167 20.08 20.08 0 012.898 6.874.972.972 0 00.858.77l4.973.479v6.134z"/><path d="M33.391 45.232V30.344c2.472-1.427 4.094-4.137 4.094-6.929 0-3.815-2.181-6.594-5.836-7.432a.981.981 0 00-1.197 1.032l.324 4.16c-.819.43-1.795.43-2.615.002l.349-4.184a.98.98 0 00-1.25-1.023c-3.342.968-5.424 3.842-5.424 7.502 0 3.36 1.762 6.077 4.704 7.255v14.83c-2.084 1.23-4.091 3.726-4.06 6.902 0 3.784 2.158 6.581 5.765 7.484a.982.982 0 001.218-1.027l-.323-4.16a2.817 2.817 0 012.614-.002l-.348 4.184a.98.98 0 001.25 1.023c3.326-.963 5.412-3.823 5.446-7.474 0-3.36-1.785-6.077-4.71-7.255zm.105 12.238l.261-3.135a.98.98 0 00-.382-.862l-.037-.028a4.777 4.777 0 00-5.827.038.98.98 0 00-.37.846l.25 3.226c-1.888-.941-2.943-2.738-2.943-5.106-.026-2.58 1.79-4.613 3.495-5.411a.975.975 0 00.558-.888V30.032a.976.976 0 00-.691-.939c-2.476-.747-4.01-2.9-4.01-5.622 0-2.19.975-4.003 2.618-5.01l-.26 3.135a.979.979 0 00.384.861l.037.028a4.775 4.775 0 005.848-.055.982.982 0 00.35-.83l-.254-3.259c1.925.902 3.002 2.691 3.002 5.075 0 2.221-1.453 4.463-3.534 5.451a.98.98 0 00-.56.886v16.173a.98.98 0 00.698.938c2.476.748 4.013 2.902 4.013 5.614-.02 2.182-1.004 3.987-2.645 4.992z"/></g></symbol><symbol id="icon-maintenance2"><g clip-path="url(#clip0)"><path d="M52.03 38.335l-1.91-3.822c.405-.823.752-1.654 1.037-2.482l4.047-1.349V19.61l-4.047-1.349a21.277 21.277 0 00-1.038-2.481l1.913-3.826-7.829-7.83-3.826 1.914a21.282 21.282 0 00-2.481-1.039L36.546.952H25.474l-1.349 4.046c-.827.285-1.658.633-2.481 1.039l-3.826-1.914-7.83 7.83 1.914 3.826a21.295 21.295 0 00-1.038 2.481l-4.047 1.35v11.07l4.047 1.349c.282.822.626 1.645 1.027 2.461l-1.244 2.268H4.88v19.354h6.774V53.21h7.341l2.904 2.903h5.239v.968a3.875 3.875 0 003.871 3.871 3.875 3.875 0 003.871-3.87v-.969h6.775c1.6 0 2.903-1.302 2.903-2.903 0-.746-.29-1.42-.754-1.935a2.88 2.88 0 00.754-1.936c0-.746-.29-1.42-.754-1.935.37-.41.622-.923.71-1.493l7.516-7.576zm-38.187-4.273a19.372 19.372 0 01-1.291-3.088l-.149-.47-3.651-1.218v-8.282l3.651-1.217.148-.47a19.22 19.22 0 011.291-3.088l.228-.438-1.728-3.456 5.856-5.856 3.456 1.727.438-.227a19.257 19.257 0 013.088-1.291l.47-.148 1.22-3.652h8.282l1.216 3.65.472.149a19.34 19.34 0 013.087 1.29l.438.228 3.456-1.727 5.856 5.856-1.728 3.456.228.438a19.261 19.261 0 011.291 3.087l.148.471 3.652 1.219v8.282l-3.651 1.217-.149.47a19.371 19.371 0 01-1.291 3.088l-.228.439 1.73 3.458-5.719 5.762a3.01 3.01 0 00-.155-.188 2.88 2.88 0 00.754-1.936 2.897 2.897 0 00-2.636-2.876 17.314 17.314 0 006.506-13.575c0-9.605-7.814-17.42-17.419-17.42s-17.42 7.815-17.42 17.42a17.427 17.427 0 006.48 13.548h-8.278l2.29-4.173-.239-.459zm28.78 15.277a.97.97 0 01-.967.968h-7.743a.969.969 0 010-1.936h7.743a.97.97 0 01.968.968zm-13.95-24.193h4.673l1.535-1.535v-4.272c1.067 0 1.935.868 1.935 1.936v4.438l-3.303 3.304h-5.005l-3.304-3.304v-4.438c0-1.068.868-1.936 1.935-1.936v4.272l1.535 1.535zm.402 5.806h3.87v3.871h-3.87v-3.87zm5.806-.567l3.87-3.87v-5.24a3.875 3.875 0 00-3.87-3.871h-1.935v5.405l-.401.401h-3.07l-.4-.4v-5.406h-1.936a3.875 3.875 0 00-3.87 3.87v5.24l3.87 3.871v4.438h-2.336l-.061.061c-3.304-2.132-5.345-5.787-5.345-9.738 0-6.404 5.21-11.613 11.613-11.613 6.404 0 11.613 5.209 11.613 11.613 0 3.922-1.96 7.514-5.24 9.677h-2.502v-4.438zm9.677-5.24c0-7.47-6.077-13.548-13.548-13.548s-13.548 6.077-13.548 13.549c0 4.47 2.223 8.632 5.87 11.147l-1.393 1.394a15.49 15.49 0 01-6.413-12.541c0-8.538 6.947-15.484 15.484-15.484 8.537 0 15.484 6.946 15.484 15.484a15.39 15.39 0 01-5.853 12.12 2.88 2.88 0 00-.964-1.722 13.459 13.459 0 004.881-10.398zM41.656 40.63a.97.97 0 01.968.967.97.97 0 01-.968.968h-7.743a.969.969 0 010-1.935h7.743zm-7.743 5.806a.969.969 0 010-1.935h7.743a.97.97 0 01.968.967.97.97 0 01-.968.968h-7.743zM9.72 54.178H6.816V38.694H9.72v15.484zm12.981 0l-2.903-2.903h-8.143V40.63h10.078l3.871-3.871h12.18a.969.969 0 010 1.935H27.706l-4.154 4.155 1.368 1.368 2.219-2.219v12.18h-4.438zm8.309 4.839a1.937 1.937 0 01-1.936-1.936V40.63h2.114a2.862 2.862 0 00-.178.967c0 .746.291 1.42.755 1.936a2.88 2.88 0 00-.755 1.935c0 .746.291 1.42.755 1.936a2.88 2.88 0 00-.755 1.935c0 .746.291 1.42.755 1.936a2.88 2.88 0 00-.755 1.935 2.9 2.9 0 001.936 2.725v1.146a1.937 1.937 0 01-1.936 1.936zm10.646-4.839h-7.743a.969.969 0 010-1.935h7.743a.97.97 0 01.968.967.97.97 0 01-.968.968z" fill="#FFAC07"/></g></symbol><symbol id="icon-medal"><g clip-path="url(#clip0)" fill="#FFAC07"><path d="M55.321 49.928l-8.768-15.405c.888-.415 1.422-1.363 1.362-2.429l-.651-5.45 3.732-3.911c.83-.83.889-2.252.06-3.259l-3.733-4.029.77-5.51c.118-1.185-.711-2.37-1.896-2.607l-5.392-1.066-2.606-4.8C37.665.338 36.361-.136 35.177.338h-.06l-4.976 2.31-4.859-2.37A2.317 2.317 0 0023.505.1a2.338 2.338 0 00-1.363 1.126l-2.666 4.799-5.391.948c-1.245.237-2.074 1.362-1.956 2.666l.652 5.45L9.048 19c-.83.83-.888 2.252-.059 3.259l3.733 4.029-.77 5.51c-.119 1.066.533 2.073 1.54 2.488L4.664 49.928c-.237.355-.178.83 0 1.185.237.355.592.592 1.007.592h9.48l4.325 7.525c.237.355.593.592 1.007.592.415 0 .83-.237 1.008-.592l8.472-14.457 8.472 14.634c.237.356.593.593 1.008.593.415 0 .83-.237 1.007-.593l4.325-7.702h9.48c.414 0 .83-.237 1.007-.592a.98.98 0 00.06-1.185zm-34.779 6.34l-3.673-6.34c-.237-.356-.592-.593-1.007-.593H7.686l8.176-14.456 3.377.592 2.607 4.8c.533 1.125 1.837 1.599 3.022 1.125h.059l2.43-1.126 1.184 2.074-7.998 13.923zm3.437-17.005h-.06l-2.606-4.917c-.356-.593-.948-1.067-1.66-1.126l-5.45-1.007.77-5.451c.119-.711-.118-1.482-.592-1.956l-3.674-4.028 3.733-3.91c.533-.534.77-1.245.652-1.956L14.44 9.52s0-.059.06-.118l5.39-.948a2.398 2.398 0 001.66-1.185l2.666-4.8 4.858 2.37a2.266 2.266 0 002.133 0l4.918-2.25h.06l2.606 4.917c.356.592.948 1.066 1.6 1.126l5.391 1.066-.77 5.451c-.118.711.119 1.481.593 1.955l3.732 4.03-3.792 3.91c-.533.533-.77 1.244-.651 1.955l.651 5.45-5.332.89a2.398 2.398 0 00-1.659 1.184l-2.666 4.8-4.858-2.37a2.266 2.266 0 00-2.134 0l-4.917 2.31zm20.144 10.072c-.414 0-.83.237-1.007.593l-3.673 6.517-8.354-14.456a.955.955 0 00-.237-.415l-1.304-2.31.415-.179 4.858 2.37c.356.178.711.237 1.067.237.83 0 1.659-.414 2.074-1.185l2.666-4.799 3.555-.651L52.3 49.334h-8.177z"/><path d="M41.813 20.896c0-6.517-5.333-11.85-11.85-11.85-6.517 0-11.85 5.333-11.85 11.85 0 6.517 5.333 11.85 11.85 11.85 6.517 0 11.85-5.333 11.85-11.85zm-11.85 9.48c-5.214 0-9.48-4.266-9.48-9.48s4.266-9.48 9.48-9.48 9.48 4.266 9.48 9.48-4.266 9.48-9.48 9.48z"/></g></symbol><symbol id="icon-pin"><path d="M14.994 0C8.364 0 2.969 5.396 2.969 12.025c0 .755.069 1.516.213 2.258a11.842 11.842 0 00.887 2.774c1.296 3.05 4.145 7.735 10.396 12.754a.854.854 0 001.07 0c6.245-5.018 9.1-9.704 10.396-12.754a11.705 11.705 0 00.887-2.774c.138-.742.213-1.503.213-2.258C27.02 5.396 21.623 0 14.994 0zm10.138 13.987c0 .013-.006.026-.006.038-.007.032-.025.126-.057.27v.013a9.993 9.993 0 01-.698 2.05c-.006.007-.006.02-.012.026-1.177 2.786-3.755 7.037-9.365 11.673-5.61-4.636-8.189-8.887-9.365-11.673-.006-.007-.006-.02-.013-.026a10.651 10.651 0 01-.698-2.05v-.012c-.037-.145-.05-.24-.056-.27 0-.013-.007-.026-.007-.045a10.27 10.27 0 01-.188-1.962c0-5.692 4.635-10.327 10.327-10.327S25.32 6.327 25.32 12.019c0 .666-.063 1.327-.189 1.968z" fill="#FFAC07"/><path d="M14.994 4.522c-4.208 0-7.636 3.428-7.636 7.635 0 4.208 3.428 7.635 7.636 7.635 4.207 0 7.635-3.427 7.635-7.635 0-4.207-3.428-7.635-7.635-7.635zm0 13.572a5.944 5.944 0 01-5.937-5.937 5.948 5.948 0 015.937-5.937 5.948 5.948 0 015.937 5.937c0 3.27-2.66 5.937-5.937 5.937z" fill="#FFAC07"/></symbol><symbol id="icon-purse"><path d="M57.363 25.604h-.878V13.592a5.573 5.573 0 00-5.566-5.566H26.78L10.495 3.373l-.014-.003-.015-.005-.029-.005-.045-.01-.041-.005a.84.84 0 00-.048-.004l-.038-.001a.86.86 0 00-.05 0l-.035.003a.791.791 0 00-.05.005l-.034.006a.809.809 0 00-.05.01l-.032.009a.982.982 0 00-.13.048l-.025.012a.778.778 0 00-.049.027l-.024.015a.809.809 0 00-.047.03l-.023.018a.848.848 0 00-.042.035l-.023.02a.95.95 0 00-.038.038l-.022.025a.877.877 0 00-.032.04l-.022.029a.807.807 0 00-.027.04l-.02.035a.801.801 0 00-.022.04c-.007.012-.012.026-.018.04a.81.81 0 00-.017.04c-.006.014-.01.028-.015.043l-.01.028-.003.014-.004.015-1.005 4.02h-2.83A5.573 5.573 0 000 13.573v35.175a.88.88 0 001.758 0V17.646a5.545 5.545 0 003.809 1.513h45.355a3.813 3.813 0 013.805 3.808v6.153h-9.67a.873.873 0 00-.16.015l-.012.002a.91.91 0 00-.068.017l-.014.004a.83.83 0 00-.059.021l-.022.008-.048.022-.03.015-.036.021-.039.024-.024.018-.045.033-.018.016-.045.041-.024.027a.93.93 0 00-.085.106l-.001.002-4.688 7.031a.861.861 0 00-.082.155.626.626 0 00-.021.061l-.007.019a.906.906 0 00-.016.065l-.004.017a.922.922 0 00-.01.06l-.003.025-.002.048-.002.038.002.036c0 .017 0 .033.002.05l.004.024a.89.89 0 00.009.06.87.87 0 00.02.082l.007.02.021.06c.022.055.05.107.083.156l4.687 7.03v.001a1 1 0 00.062.08l.022.025a.824.824 0 00.128.114l.024.019a.873.873 0 00.082.049l.022.01a.82.82 0 00.165.063l.028.007c.024.006.048.01.073.013l.026.005c.03.003.061.005.092.005h9.676v6.154c0 2.1-1.708 3.808-3.808 3.808H5.567a3.813 3.813 0 01-3.808-3.808v-3.517a.88.88 0 00-1.759 0v3.517l.002.027a5.572 5.572 0 005.565 5.54H50.92a5.573 5.573 0 005.566-5.567V44.94h.879A2.64 2.64 0 0060 42.304V28.241a2.64 2.64 0 00-2.637-2.637zM10.887 5.313l15.508 4.431h.002l10.394 2.97H9.037l1.85-7.401zm43.84 13.6a5.544 5.544 0 00-3.808-1.512H5.567a3.813 3.813 0 01-3.809-3.809c0-2.1 1.709-3.808 3.809-3.808h2.39l-.732 2.93H5.567a.879.879 0 000 1.758h44.179a.879.879 0 100-1.758H43.19l-10.257-2.93h17.986c2.1 0 3.808 1.708 3.808 3.808v5.321zm3.515 23.39a.88.88 0 01-.879.88H45.528l-4.101-6.153 4.101-6.152h11.835l.037-.002c.295-.004.578-.057.842-.15v11.578zm-.879-13.184l-.018.001h-.86v-1.758h.878a.88.88 0 010 1.757z" fill="#000"/><path d="M48.574 33.808a3.226 3.226 0 00-3.223 3.222 3.226 3.226 0 003.223 3.223 3.226 3.226 0 003.223-3.223 3.226 3.226 0 00-3.223-3.222zm0 4.687a1.466 1.466 0 01-1.465-1.465c0-.807.657-1.465 1.465-1.465s1.465.658 1.465 1.465c0 .808-.657 1.465-1.465 1.465z" fill="#000"/></symbol><symbol id="icon-shield"><g clip-path="url(#clip0)" fill="#FFAC07"><path d="M29.35 59.803a1.173 1.173 0 001.3 0l10.657-7.105a24.559 24.559 0 0010.959-20.476V8.236c0-.504-.323-.952-.8-1.111L30.372.06a1.176 1.176 0 00-.744 0L8.534 7.125c-.478.16-.8.607-.8 1.11v23.987a24.559 24.559 0 0010.959 20.476l10.657 7.105zM10.078 32.222V9.079L30 2.407 49.922 9.08v23.143a22.22 22.22 0 01-9.915 18.526L30 57.42l-10.007-6.672a22.22 22.22 0 01-9.915-18.526z"/><path d="M29.35 54.17a1.173 1.173 0 001.3 0l8.057-5.372a19.88 19.88 0 008.871-16.575V11.614a1.17 1.17 0 00-.8-1.11L30.374 5.001a1.173 1.173 0 00-.746 0l-16.406 5.501c-.477.16-.8.608-.8 1.111v18.524a1.172 1.172 0 002.345 0v-17.68L30 7.348l15.234 5.108v19.766a17.54 17.54 0 01-7.827 14.625L30 51.786l-7.407-4.939a17.539 17.539 0 01-7.827-14.624v-3.278a1.172 1.172 0 00-2.344 0v3.278a19.88 19.88 0 008.871 16.575l8.057 5.372z"/><path d="M25.17 38.462a3.492 3.492 0 002.486 1.03c.94 0 1.822-.366 2.486-1.03l9.375-9.375a3.513 3.513 0 000-4.971 3.514 3.514 0 00-4.971 0l-6.89 6.89-2.202-2.203a3.513 3.513 0 00-4.97 0 3.513 3.513 0 000 4.972l4.687 4.687zm-3.03-8.001a1.17 1.17 0 011.657 0l3.03 3.03c.458.457 1.2.457 1.658 0l7.718-7.718a1.171 1.171 0 111.656 1.657l-9.375 9.375a1.164 1.164 0 01-.828.344c-.312 0-.607-.123-.828-.344l-4.688-4.688a1.17 1.17 0 010-1.656z"/></g></symbol><symbol id="icon-smartphone"><path d="M35 3H25a1 1 0 000 2h10a1 1 0 000-2zm7 0h-1a1 1 0 000 2h1a1 1 0 000-2zM31.242 51h-2.483A2.762 2.762 0 0026 53.759v.483A2.761 2.761 0 0028.758 57h2.483A2.762 2.762 0 0034 54.242v-.483A2.762 2.762 0 0031.242 51zM32 54.242c0 .418-.34.758-.758.758h-2.483a.76.76 0 01-.76-.758v-.483a.76.76 0 01.76-.76h2.482a.76.76 0 01.759.76v.483z" fill="#000"/><path d="M43.386 0H16.615A3.62 3.62 0 0013 3.615v52.77A3.62 3.62 0 0016.615 60h26.77A3.62 3.62 0 0047 56.386V3.615A3.62 3.62 0 0043.386 0zM45 56.385c0 .89-.724 1.615-1.614 1.615H16.615A1.617 1.617 0 0115 56.386V3.615C15 2.725 15.724 2 16.615 2h26.77C44.275 2 45 2.725 45 3.615v52.77z" fill="#000"/><path d="M46 6H14a1 1 0 00-1 1v42a1 1 0 001 1h32a1 1 0 001-1V7a1 1 0 00-1-1zm-1 42H15V8h30v40z" fill="#000"/></symbol><symbol id="icon-tools"><path d="M39.645 30.411l8.13-8.13a12.008 12.008 0 014.803-2.91 9.89 9.89 0 003.941-2.41 9.783 9.783 0 002.886-7.129 9.79 9.79 0 00-3.117-7.039l-1.184-1.112-2.154 6.903a2.898 2.898 0 01-3.622 1.9 2.88 2.88 0 01-2.031-2.761c0-.292.044-.582.131-.861L49.57 0l-1.626.264a9.789 9.789 0 00-4.9 2.305 9.893 9.893 0 00-3.299 8.516c.388 3.474-.85 6.927-3.396 9.474l-3.279 3.278-5.954-5.955 1.831-1.832-3.604-3.604c1.935-2.849 6.25-6.731 10.255-8.508l1.812-.805L35.7 2.13C30.715-.798 24.328.062 20.17 4.222L9.57 14.82l-.712.713.705.72c.62.631.397 1.91-.485 2.792-.882.882-2.16 1.104-2.792.485l-.72-.705-5.498 5.498 10.304 10.303 5.495-5.495-.7-.72c-.614-.632-.39-1.908.49-2.788.879-.88 2.155-1.103 2.788-.489l.72.7 1.722-1.723 5.954 5.955-7.653 7.653a11.999 11.999 0 01-4.801 2.91 9.742 9.742 0 00-3.942 2.41 9.78 9.78 0 00-2.886 7.128 9.791 9.791 0 003.117 7.04l1.185 1.112 2.154-6.903c.23-.737.732-1.34 1.416-1.7a2.872 2.872 0 012.205-.199 2.877 2.877 0 011.899 3.621L17.395 60l1.626-.264a9.79 9.79 0 004.899-2.305 9.893 9.893 0 003.3-8.517c-.388-3.473.85-6.926 3.396-9.473l2.8-2.8 19 18.998a4.39 4.39 0 003.114 1.288c1.127 0 2.255-.43 3.114-1.288a4.41 4.41 0 000-6.229L39.645 30.411zm-1.856-8.413c2.986-2.986 4.436-7.047 3.98-11.139a7.854 7.854 0 012.62-6.76 7.714 7.714 0 012.19-1.352l-1.094 3.508c-.149.476-.224.97-.224 1.468a4.908 4.908 0 003.461 4.705 4.936 4.936 0 006.172-3.237l1.124-3.604a7.761 7.761 0 011.351 4.277 7.762 7.762 0 01-2.289 5.657 7.736 7.736 0 01-3.126 1.913 14.06 14.06 0 00-5.619 3.407l-8.13 8.13-3.694-3.695L37.788 22zM21.61 5.662c3.018-3.018 7.421-3.978 11.26-2.615-3.644 2.083-7.109 5.329-8.982 7.935l-3.8-3.799 1.522-1.52zm-2.96 2.96l7.42 7.43-6.767 6.766-7.425-7.425c1.462-1.46 4.48-4.478 6.771-6.77zM2.947 24.324l2.625-2.626 7.424 7.424-2.625 2.626-7.424-7.424zm11.269-.14a4.987 4.987 0 00-1.248 2.03l-4.48-4.48a4.99 4.99 0 002.029-1.248 4.933 4.933 0 001.312-2.26l4.647 4.647c-.8.203-1.59.641-2.26 1.311zm14.958 13.818c-2.985 2.987-4.436 7.047-3.98 11.14a7.854 7.854 0 01-2.62 6.76 7.71 7.71 0 01-2.19 1.352l1.094-3.509c.15-.48.225-.974.225-1.469a4.904 4.904 0 00-3.462-4.701 4.894 4.894 0 00-3.756.34 4.892 4.892 0 00-2.415 2.896l-1.124 3.603a7.761 7.761 0 01-1.352-4.279 7.76 7.76 0 012.29-5.655 7.722 7.722 0 013.125-1.913 14.045 14.045 0 005.618-3.408l7.653-7.653 3.695 3.695-2.8 2.801zM57.206 54.2a2.371 2.371 0 01-3.35 0L22.327 22.671l3.35-3.35L57.203 50.85a2.372 2.372 0 010 3.35z" fill="#000"/></symbol></svg>