<svg width="60" height="60" fill="none" xmlns="http://www.w3.org/2000/svg"><g clip-path="url(#clip0)"><path d="M52.03 38.335l-1.91-3.822c.405-.823.752-1.654 1.037-2.482l4.047-1.349V19.61l-4.047-1.349a21.277 21.277 0 00-1.038-2.481l1.913-3.826-7.829-7.83-3.826 1.914a21.282 21.282 0 00-2.481-1.039L36.546.952H25.474l-1.349 4.046c-.827.285-1.658.633-2.481 1.039l-3.826-1.914-7.83 7.83 1.914 3.826a21.295 21.295 0 00-1.038 2.481l-4.047 1.35v11.07l4.047 1.349c.282.822.626 1.645 1.027 2.461l-1.244 2.268H4.88v19.354h6.774V53.21h7.341l2.904 2.903h5.239v.968a3.875 3.875 0 003.871 3.871 3.875 3.875 0 003.871-3.87v-.969h6.775c1.6 0 2.903-1.302 2.903-2.903 0-.746-.29-1.42-.754-1.935a2.88 2.88 0 00.754-1.936c0-.746-.29-1.42-.754-1.935.37-.41.622-.923.71-1.493l7.516-7.576zm-38.187-4.273a19.372 19.372 0 01-1.291-3.088l-.149-.47-3.651-1.218v-8.282l3.651-1.217.148-.47a19.22 19.22 0 011.291-3.088l.228-.438-1.728-3.456 5.856-5.856 3.456 1.727.438-.227a19.257 19.257 0 013.088-1.291l.47-.148 1.22-3.652h8.282l1.216 3.65.472.149a19.34 19.34 0 013.087 1.29l.438.228 3.456-1.727 5.856 5.856-1.728 3.456.228.438a19.261 19.261 0 011.291 3.087l.148.471 3.652 1.219v8.282l-3.651 1.217-.149.47a19.371 19.371 0 01-1.291 3.088l-.228.439 1.73 3.458-5.719 5.762a3.01 3.01 0 00-.155-.188 2.88 2.88 0 00.754-1.936 2.897 2.897 0 00-2.636-2.876 17.314 17.314 0 006.506-13.575c0-9.605-7.814-17.42-17.419-17.42s-17.42 7.815-17.42 17.42a17.427 17.427 0 006.48 13.548h-8.278l2.29-4.173-.239-.459zm28.78 15.277a.97.97 0 01-.967.968h-7.743a.969.969 0 010-1.936h7.743a.97.97 0 01.968.968zm-13.95-24.193h4.673l1.535-1.535v-4.272c1.067 0 1.935.868 1.935 1.936v4.438l-3.303 3.304h-5.005l-3.304-3.304v-4.438c0-1.068.868-1.936 1.935-1.936v4.272l1.535 1.535zm.402 5.806h3.87v3.871h-3.87v-3.87zm5.806-.567l3.87-3.87v-5.24a3.875 3.875 0 00-3.87-3.871h-1.935v5.405l-.401.401h-3.07l-.4-.4v-5.406h-1.936a3.875 3.875 0 00-3.87 3.87v5.24l3.87 3.871v4.438h-2.336l-.061.061c-3.304-2.132-5.345-5.787-5.345-9.738 0-6.404 5.21-11.613 11.613-11.613 6.404 0 11.613 5.209 11.613 11.613 0 3.922-1.96 7.514-5.24 9.677h-2.502v-4.438zm9.677-5.24c0-7.47-6.077-13.548-13.548-13.548s-13.548 6.077-13.548 13.549c0 4.47 2.223 8.632 5.87 11.147l-1.393 1.394a15.49 15.49 0 01-6.413-12.541c0-8.538 6.947-15.484 15.484-15.484 8.537 0 15.484 6.946 15.484 15.484a15.39 15.39 0 01-5.853 12.12 2.88 2.88 0 00-.964-1.722 13.459 13.459 0 004.881-10.398zM41.656 40.63a.97.97 0 01.968.967.97.97 0 01-.968.968h-7.743a.969.969 0 010-1.935h7.743zm-7.743 5.806a.969.969 0 010-1.935h7.743a.97.97 0 01.968.967.97.97 0 01-.968.968h-7.743zM9.72 54.178H6.816V38.694H9.72v15.484zm12.981 0l-2.903-2.903h-8.143V40.63h10.078l3.871-3.871h12.18a.969.969 0 010 1.935H27.706l-4.154 4.155 1.368 1.368 2.219-2.219v12.18h-4.438zm8.309 4.839a1.937 1.937 0 01-1.936-1.936V40.63h2.114a2.862 2.862 0 00-.178.967c0 .746.291 1.42.755 1.936a2.88 2.88 0 00-.755 1.935c0 .746.291 1.42.755 1.936a2.88 2.88 0 00-.755 1.935c0 .746.291 1.42.755 1.936a2.88 2.88 0 00-.755 1.935 2.9 2.9 0 001.936 2.725v1.146a1.937 1.937 0 01-1.936 1.936zm10.646-4.839h-7.743a.969.969 0 010-1.935h7.743a.97.97 0 01.968.967.97.97 0 01-.968.968z" fill="#FFAC07"/></g><defs><clipPath id="clip0"><path fill="#fff" d="M0 0h60v60H0z"/></clipPath></defs></svg>