<svg width="60" height="60" fill="none" xmlns="http://www.w3.org/2000/svg"><path d="M39.645 30.411l8.13-8.13a12.008 12.008 0 014.803-2.91 9.89 9.89 0 003.941-2.41 9.783 9.783 0 002.886-7.129 9.79 9.79 0 00-3.117-7.039l-1.184-1.112-2.154 6.903a2.898 2.898 0 01-3.622 1.9 2.88 2.88 0 01-2.031-2.761c0-.292.044-.582.131-.861L49.57 0l-1.626.264a9.789 9.789 0 00-4.9 2.305 9.893 9.893 0 00-3.299 8.516c.388 3.474-.85 6.927-3.396 9.474l-3.279 3.278-5.954-5.955 1.831-1.832-3.604-3.604c1.935-2.849 6.25-6.731 10.255-8.508l1.812-.805L35.7 2.13C30.715-.798 24.328.062 20.17 4.222L9.57 14.82l-.712.713.705.72c.62.631.397 1.91-.485 2.792-.882.882-2.16 1.104-2.792.485l-.72-.705-5.498 5.498 10.304 10.303 5.495-5.495-.7-.72c-.614-.632-.39-1.908.49-2.788.879-.88 2.155-1.103 2.788-.489l.72.7 1.722-1.723 5.954 5.955-7.653 7.653a11.999 11.999 0 01-4.801 2.91 9.742 9.742 0 00-3.942 2.41 9.78 9.78 0 00-2.886 7.128 9.791 9.791 0 003.117 7.04l1.185 1.112 2.154-6.903c.23-.737.732-1.34 1.416-1.7a2.872 2.872 0 012.205-.199 2.877 2.877 0 011.899 3.621L17.395 60l1.626-.264a9.79 9.79 0 004.899-2.305 9.893 9.893 0 003.3-8.517c-.388-3.473.85-6.926 3.396-9.473l2.8-2.8 19 18.998a4.39 4.39 0 003.114 1.288c1.127 0 2.255-.43 3.114-1.288a4.41 4.41 0 000-6.229L39.645 30.411zm-1.856-8.413c2.986-2.986 4.436-7.047 3.98-11.139a7.854 7.854 0 012.62-6.76 7.714 7.714 0 012.19-1.352l-1.094 3.508c-.149.476-.224.97-.224 1.468a4.908 4.908 0 003.461 4.705 4.936 4.936 0 006.172-3.237l1.124-3.604a7.761 7.761 0 011.351 4.277 7.762 7.762 0 01-2.289 5.657 7.736 7.736 0 01-3.126 1.913 14.06 14.06 0 00-5.619 3.407l-8.13 8.13-3.694-3.695L37.788 22zM21.61 5.662c3.018-3.018 7.421-3.978 11.26-2.615-3.644 2.083-7.109 5.329-8.982 7.935l-3.8-3.799 1.522-1.52zm-2.96 2.96l7.42 7.43-6.767 6.766-7.425-7.425c1.462-1.46 4.48-4.478 6.771-6.77zM2.947 24.324l2.625-2.626 7.424 7.424-2.625 2.626-7.424-7.424zm11.269-.14a4.987 4.987 0 00-1.248 2.03l-4.48-4.48a4.99 4.99 0 002.029-1.248 4.933 4.933 0 001.312-2.26l4.647 4.647c-.8.203-1.59.641-2.26 1.311zm14.958 13.818c-2.985 2.987-4.436 7.047-3.98 11.14a7.854 7.854 0 01-2.62 6.76 7.71 7.71 0 01-2.19 1.352l1.094-3.509c.15-.48.225-.974.225-1.469a4.904 4.904 0 00-3.462-4.701 4.894 4.894 0 00-3.756.34 4.892 4.892 0 00-2.415 2.896l-1.124 3.603a7.761 7.761 0 01-1.352-4.279 7.76 7.76 0 012.29-5.655 7.722 7.722 0 013.125-1.913 14.045 14.045 0 005.618-3.408l7.653-7.653 3.695 3.695-2.8 2.801zM57.206 54.2a2.371 2.371 0 01-3.35 0L22.327 22.671l3.35-3.35L57.203 50.85a2.372 2.372 0 010 3.35z" fill="#000"/></svg>