<svg width="60" height="60" fill="none" xmlns="http://www.w3.org/2000/svg"><path d="M57.363 25.604h-.878V13.592a5.573 5.573 0 00-5.566-5.566H26.78L10.495 3.373l-.014-.003-.015-.005-.029-.005-.045-.01-.041-.005a.84.84 0 00-.048-.004l-.038-.001a.86.86 0 00-.05 0l-.035.003a.791.791 0 00-.05.005l-.034.006a.809.809 0 00-.05.01l-.032.009a.982.982 0 00-.13.048l-.025.012a.778.778 0 00-.049.027l-.024.015a.809.809 0 00-.047.03l-.023.018a.848.848 0 00-.042.035l-.023.02a.95.95 0 00-.038.038l-.022.025a.877.877 0 00-.032.04l-.022.029a.807.807 0 00-.027.04l-.02.035a.801.801 0 00-.022.04c-.007.012-.012.026-.018.04a.81.81 0 00-.017.04c-.006.014-.01.028-.015.043l-.01.028-.003.014-.004.015-1.005 4.02h-2.83A5.573 5.573 0 000 13.573v35.175a.88.88 0 001.758 0V17.646a5.545 5.545 0 003.809 1.513h45.355a3.813 3.813 0 013.805 3.808v6.153h-9.67a.873.873 0 00-.16.015l-.012.002a.91.91 0 00-.068.017l-.014.004a.83.83 0 00-.059.021l-.022.008-.048.022-.03.015-.036.021-.039.024-.024.018-.045.033-.018.016-.045.041-.024.027a.93.93 0 00-.085.106l-.001.002-4.688 7.031a.861.861 0 00-.082.155.626.626 0 00-.021.061l-.007.019a.906.906 0 00-.016.065l-.004.017a.922.922 0 00-.01.06l-.003.025-.002.048-.002.038.002.036c0 .017 0 .033.002.05l.004.024a.89.89 0 00.009.06.87.87 0 00.02.082l.007.02.021.06c.022.055.05.107.083.156l4.687 7.03v.001a1 1 0 00.062.08l.022.025a.824.824 0 00.128.114l.024.019a.873.873 0 00.082.049l.022.01a.82.82 0 00.165.063l.028.007c.024.006.048.01.073.013l.026.005c.03.003.061.005.092.005h9.676v6.154c0 2.1-1.708 3.808-3.808 3.808H5.567a3.813 3.813 0 01-3.808-3.808v-3.517a.88.88 0 00-1.759 0v3.517l.002.027a5.572 5.572 0 005.565 5.54H50.92a5.573 5.573 0 005.566-5.567V44.94h.879A2.64 2.64 0 0060 42.304V28.241a2.64 2.64 0 00-2.637-2.637zM10.887 5.313l15.508 4.431h.002l10.394 2.97H9.037l1.85-7.401zm43.84 13.6a5.544 5.544 0 00-3.808-1.512H5.567a3.813 3.813 0 01-3.809-3.809c0-2.1 1.709-3.808 3.809-3.808h2.39l-.732 2.93H5.567a.879.879 0 000 1.758h44.179a.879.879 0 100-1.758H43.19l-10.257-2.93h17.986c2.1 0 3.808 1.708 3.808 3.808v5.321zm3.515 23.39a.88.88 0 01-.879.88H45.528l-4.101-6.153 4.101-6.152h11.835l.037-.002c.295-.004.578-.057.842-.15v11.578zm-.879-13.184l-.018.001h-.86v-1.758h.878a.88.88 0 010 1.757z" fill="#000"/><path d="M48.574 33.808a3.226 3.226 0 00-3.223 3.222 3.226 3.226 0 003.223 3.223 3.226 3.226 0 003.223-3.223 3.226 3.226 0 00-3.223-3.222zm0 4.687a1.466 1.466 0 01-1.465-1.465c0-.807.657-1.465 1.465-1.465s1.465.658 1.465 1.465c0 .808-.657 1.465-1.465 1.465z" fill="#000"/></svg>