<svg width="60" height="60" fill="none" xmlns="http://www.w3.org/2000/svg"><g clip-path="url(#clip0)" fill="#FFAC07"><path d="M55.321 49.928l-8.768-15.405c.888-.415 1.422-1.363 1.362-2.429l-.651-5.45 3.732-3.911c.83-.83.889-2.252.06-3.259l-3.733-4.029.77-5.51c.118-1.185-.711-2.37-1.896-2.607l-5.392-1.066-2.606-4.8C37.665.338 36.361-.136 35.177.338h-.06l-4.976 2.31-4.859-2.37A2.317 2.317 0 0023.505.1a2.338 2.338 0 00-1.363 1.126l-2.666 4.799-5.391.948c-1.245.237-2.074 1.362-1.956 2.666l.652 5.45L9.048 19c-.83.83-.888 2.252-.059 3.259l3.733 4.029-.77 5.51c-.119 1.066.533 2.073 1.54 2.488L4.664 49.928c-.237.355-.178.83 0 1.185.237.355.592.592 1.007.592h9.48l4.325 7.525c.237.355.593.592 1.007.592.415 0 .83-.237 1.008-.592l8.472-14.457 8.472 14.634c.237.356.593.593 1.008.593.415 0 .83-.237 1.007-.593l4.325-7.702h9.48c.414 0 .83-.237 1.007-.592a.98.98 0 00.06-1.185zm-34.779 6.34l-3.673-6.34c-.237-.356-.592-.593-1.007-.593H7.686l8.176-14.456 3.377.592 2.607 4.8c.533 1.125 1.837 1.599 3.022 1.125h.059l2.43-1.126 1.184 2.074-7.998 13.923zm3.437-17.005h-.06l-2.606-4.917c-.356-.593-.948-1.067-1.66-1.126l-5.45-1.007.77-5.451c.119-.711-.118-1.482-.592-1.956l-3.674-4.028 3.733-3.91c.533-.534.77-1.245.652-1.956L14.44 9.52s0-.059.06-.118l5.39-.948a2.398 2.398 0 001.66-1.185l2.666-4.8 4.858 2.37a2.266 2.266 0 002.133 0l4.918-2.25h.06l2.606 4.917c.356.592.948 1.066 1.6 1.126l5.391 1.066-.77 5.451c-.118.711.119 1.481.593 1.955l3.732 4.03-3.792 3.91c-.533.533-.77 1.244-.651 1.955l.651 5.45-5.332.89a2.398 2.398 0 00-1.659 1.184l-2.666 4.8-4.858-2.37a2.266 2.266 0 00-2.134 0l-4.917 2.31zm20.144 10.072c-.414 0-.83.237-1.007.593l-3.673 6.517-8.354-14.456a.955.955 0 00-.237-.415l-1.304-2.31.415-.179 4.858 2.37c.356.178.711.237 1.067.237.83 0 1.659-.414 2.074-1.185l2.666-4.799 3.555-.651L52.3 49.334h-8.177z"/><path d="M41.813 20.896c0-6.517-5.333-11.85-11.85-11.85-6.517 0-11.85 5.333-11.85 11.85 0 6.517 5.333 11.85 11.85 11.85 6.517 0 11.85-5.333 11.85-11.85zm-11.85 9.48c-5.214 0-9.48-4.266-9.48-9.48s4.266-9.48 9.48-9.48 9.48 4.266 9.48 9.48-4.266 9.48-9.48 9.48z"/></g><defs><clipPath id="clip0"><path fill="#fff" d="M0 0h60v60H0z"/></clipPath></defs></svg>