<svg width="60" height="60" fill="none" xmlns="http://www.w3.org/2000/svg"><g clip-path="url(#clip0)" fill="#FFAC07"><path d="M45.904 20.544a5.988 5.988 0 10-5.987-5.987 5.993 5.993 0 005.987 5.987zm0-1.995a3.992 3.992 0 01-3.85-2.994h7.7a3.992 3.992 0 01-3.85 2.994zm0-7.984a3.992 3.992 0 013.85 2.994h-7.7a3.992 3.992 0 013.85-2.994z"/><path d="M58.877 17.438v-3.879h-2.564c-.013-.13-.01-.256-.027-.387L60 11.028l-3.992-6.914-3.717 2.147a10.338 10.338 0 00-2.395-1.384V.586h-7.983v4.291c-.857.353-1.663.82-2.395 1.387L35.8 4.114l-3.991 6.914 3.709 2.14c-.017.13-.014.261-.026.391H4.99v24.538A7.992 7.992 0 000 45.493v7.983c0 3.581 2.807 5.988 6.985 5.988h11.976c4.178 0 6.985-2.407 6.985-5.988v-.862h6.2l4.002 4.155c.007.008.017.01.024.018.056.047.116.088.18.123a1.1 1.1 0 00.158.094c.009 0 .014.01.023.013l6.31 2.235a.998.998 0 001.285-1.24l-1.686-5.398h8.594l7.842-8.594V20.03L60 18.084l-1.123-.647zm-1.996-1.153l-.59-.34c.017-.13.014-.26.026-.39h.564v.73zm-22.345-5.987l1.996-3.457 3.213 1.855.538-.478a8.414 8.414 0 012.943-1.704l.682-.228V2.582H47.9v3.704l.683.228a8.42 8.42 0 012.943 1.705l.538.477 3.213-1.855 1.996 3.457-3.209 1.852.144.704a8.378 8.378 0 01.007 3.409l-.144.705 2.81 1.622v.898l-1.604 2.78-3.214-1.855-.538.477a8.414 8.414 0 01-2.942 1.705l-.683.233v3.704h-3.99v-3.704l-.683-.228a8.413 8.413 0 01-2.943-1.705l-.538-.477-3.213 1.855-1.996-3.457 3.202-1.848-.144-.706a8.56 8.56 0 010-3.41l.144-.706-3.202-1.848zM1.996 45.493a5.993 5.993 0 015.987-5.988v4.134c0 2.673 1.79 4.847 3.992 4.847h1.996c2.201 0 3.992-2.174 3.992-4.847v-4.134a5.994 5.994 0 015.987 5.988v5.987H1.996v-5.987zm11.975-.998v-4.99h1.996v4.134c0 1.546-.914 2.851-1.996 2.851h-1.996c-1.082 0-1.996-1.305-1.996-2.85v-4.135h1.996v4.99h1.996zm4.99 12.973H6.985c-2.411 0-4.99-1.05-4.99-3.992H23.95c0 2.943-2.578 3.992-4.99 3.992zm6.985-6.85V46.18l4.277 4.439h-4.277zm10.946 4.043l-5.54-5.748 2.874-2.769 5.54 5.748-2.874 2.77zm-6.925-7.184l-1.385-1.438 2.875-2.77 1.383 1.437-2.873 2.77zm-2.77-2.875l-.692-.718a1.995 1.995 0 011.437-3.381h.038c.528.01 1.03.23 1.397.61l.693.72-2.872 2.77zm11.522 11.07l1.986-1.915.921 2.943-2.907-1.029zm13.173-6.956V44.63h3.726l-3.726 4.085zm4.99-6.08h-6.986v7.983h-8.582l-6.34-6.578-4.158-4.312a3.965 3.965 0 00-6.449 1.018 7.967 7.967 0 00-6.404-3.238h-9.98a8.066 8.066 0 00-.998.069V15.555h28.507c.012.13.009.26.026.39l-3.71 2.14L35.8 25l3.718-2.146a10.37 10.37 0 002.395 1.384v4.29h7.983v-4.29c.857-.354 1.662-.82 2.395-1.387l3.718 2.146.873-1.51v19.15z"/><path d="M25.946 33.518h1.996v1.995h-1.996v-1.995zm-12.973 0h1.996v1.995h-1.996v-1.995zm0-11.975h1.996v1.995h-1.996v-1.995zm0 3.991h1.996v1.996h-1.996v-1.996zm0 3.992h1.996v1.996h-1.996v-1.996zm19.958 8.981h1.996v1.996h-1.996v-1.996zM28.94 21.543h1.995v1.995H28.94v-1.995zm-3.992 0h1.996v1.995h-1.996v-1.995zm-3.992 0h1.996v1.995h-1.996v-1.995zm-3.991 0h1.995v1.995h-1.995v-1.995zm27.941 8.98h1.996v1.996h-1.996v-1.996zm0 3.992h1.996v1.996h-1.996v-1.996zm0 3.992h1.996v1.996h-1.996v-1.996zm-3.991 0h1.995v1.996h-1.995v-1.996zm-3.992 0h1.996v1.996h-1.996v-1.996z"/></g><defs><clipPath id="clip0"><path fill="#fff" d="M0 0h60v60H0z"/></clipPath></defs></svg>