<svg width="60" height="60" fill="none" xmlns="http://www.w3.org/2000/svg"><g clip-path="url(#clip0)" fill="#000"><path d="M6 11h6a1 1 0 100-2H6a1 1 0 100 2zm11 0h9a1 1 0 100-2h-9a1 1 0 100 2zM6 22h32a1 1 0 100-2H6a1 1 0 100 2zm0 4h14a1 1 0 100-2H6a1 1 0 100 2zm0 8h14a1 1 0 100-2H6a1 1 0 100 2zm0 8h14a1 1 0 100-2H6a1 1 0 100 2zm0 8h14a1 1 0 100-2H6a1 1 0 100 2z"/><path d="M59.4 29.13L48 24.207V3a3 3 0 00-3-3H7a3 3 0 00-3 3v1H3a3 3 0 00-3 3v50a3 3 0 003 3h38a2.992 2.992 0 002.145-.913l.82.583c.62.44 1.45.44 2.07 0l9.675-6.887A10.185 10.185 0 0060 44.509V30.048a1 1 0 00-.6-.918zM6 3a1 1 0 011-1h38a1 1 0 011 1v20.343l-.6-.261a1 1 0 00-.792 0l-.6.261V17c0-.022-.011-.043-.013-.065a.942.942 0 00-.048-.246c-.007-.023-.006-.047-.015-.069-.009-.022-.016-.022-.021-.034a1.001 1.001 0 00-.2-.293l-12-12a1 1 0 00-.293-.2c-.013-.006-.022-.016-.034-.021-.012-.005-.046-.008-.068-.015a1 1 0 00-.249-.049C31.042 4.011 31.022 4 31 4H6V3zm26 4.414L40.586 16H33a1 1 0 01-1-1V7.414zM41 58H3a1 1 0 01-1-1V7a1 1 0 011-1h27v9a3 3 0 003 3h9v6.207L38.781 25.6A.977.977 0 0039 25a1 1 0 00-1-1H24a1 1 0 100 2h13.849l-4.63 2H6a1 1 0 100 2h24.007c0 .016-.007.031-.007.048V32h-6a1 1 0 100 2h6v2H6a1 1 0 100 2h24v2h-6a1 1 0 100 2h6v2H6a1 1 0 100 2h24.125c.1.682.269 1.352.506 2H24a1 1 0 100 2h7.641a10.232 10.232 0 001.681 2H6a1 1 0 100 2h30l5.448 3.878A.975.975 0 0141 58zm17-13.491a8.182 8.182 0 01-3.449 6.644L45 57.952l-9.551-6.8A8.182 8.182 0 0132 44.509v-13.8l1.81-.782.019-.008L45 25.089l13 5.616v13.804z"/><path d="M44.6 27.44l-10 4.32a1 1 0 00-.6.917V44.51a6.178 6.178 0 002.608 5.014l7.812 5.561a1 1 0 001.16 0l7.812-5.56A6.18 6.18 0 0056 44.508V32.677a1 1 0 00-.6-.918l-10-4.32a1 1 0 00-.8 0zm9.4 5.9v11.17a4.178 4.178 0 01-1.769 3.39L45 53.042l-7.231-5.148A4.175 4.175 0 0136 44.51V33.334l9-3.887 9 3.892z"/><path d="M39.6 42.2a1 1 0 00-1.2 1.6l4 3a1 1 0 001.38-.175l8-10a1 1 0 00-1.561-1.25l-7.394 9.244-3.225-2.42z"/></g><defs><clipPath id="clip0"><path fill="#fff" d="M0 0h60v60H0z"/></clipPath></defs></svg>