<svg width="60" height="60" fill="none" xmlns="http://www.w3.org/2000/svg"><path d="M48.75 3.75h-9.377a4.683 4.683 0 00-3.748-1.875h-2.39A3.748 3.748 0 0030 0a3.748 3.748 0 00-3.235 1.875h-2.39a4.68 4.68 0 00-3.747 1.875H11.25a4.693 4.693 0 00-4.688 4.688v46.874A4.693 4.693 0 0011.25 60h37.5a4.693 4.693 0 004.688-4.688V8.438A4.693 4.693 0 0048.75 3.75zM21.562 6.563a2.816 2.816 0 012.813-2.813h2.985c.396 0 .75-.25.883-.623A1.874 1.874 0 0130 1.875c.785 0 1.49.503 1.757 1.252a.938.938 0 00.883.623h2.985a2.816 2.816 0 012.813 2.813v2.812H21.561V6.562zm30 48.75a2.816 2.816 0 01-2.812 2.812h-37.5a2.816 2.816 0 01-2.813-2.813V8.438a2.816 2.816 0 012.813-2.813h8.532a4.695 4.695 0 00-.095.938v3.75c0 .517.42.937.938.937h18.75c.518 0 .938-.42.938-.938v-3.75c0-.32-.033-.634-.095-.937h8.532a2.816 2.816 0 012.813 2.813v46.874z" fill="#000"/><path d="M48.75 7.5h-5.625a.938.938 0 000 1.875h4.688v45H12.187v-45h4.688a.938.938 0 000-1.875H11.25a.938.938 0 00-.938.938v46.874c0 .518.42.938.938.938h37.5c.518 0 .938-.42.938-.938V8.438a.938.938 0 00-.938-.938zM30 3.75c-.247 0-.489.1-.663.274a.943.943 0 000 1.327.943.943 0 001.326 0 .943.943 0 000-1.327A.945.945 0 0030 3.75z" fill="#000"/><path d="M15.275 21.837a.937.937 0 000 1.326l2.812 2.812a.934.934 0 001.326 0l4.688-4.687a.937.937 0 10-1.326-1.326l-4.025 4.025-2.15-2.15a.937.937 0 00-1.325 0zm8.825 8.438a.937.937 0 00-1.325 0l-4.025 4.024-2.15-2.15a.937.937 0 10-1.325 1.326l2.812 2.813a.934.934 0 001.326 0l4.688-4.688a.937.937 0 000-1.325zm-1.326 10.312l-4.024 4.025-2.15-2.15a.937.937 0 10-1.325 1.326l2.812 2.812a.934.934 0 001.326 0l4.688-4.687a.937.937 0 10-1.326-1.326zm5.351-17.149h15.938a.938.938 0 000-1.875H28.124a.938.938 0 000 1.875zm0 10.312h15.938a.938.938 0 000-1.875H28.124a.938.938 0 000 1.875zm0 10.313h15.938a.938.938 0 000-1.876H28.124a.938.938 0 000 1.876z" fill="#000"/></svg>