<svg width="34" height="30" fill="none" xmlns="http://www.w3.org/2000/svg"><g clip-path="url(#clip0)"><path d="M10.327 12.15l-2.29 2.1L15.399 21 31.761 6 29.47 3.9 15.4 16.8l-5.073-4.65zM30.124 15c0 6.6-5.89 12-13.089 12-7.199 0-13.089-5.4-13.089-12s5.89-12 13.09-12c1.308 0 2.453.15 3.599.45l2.618-2.4C21.289.45 19.163 0 17.035 0 8.037 0 .674 6.75.674 15s7.363 15 16.361 15c9 0 16.362-6.75 16.362-15h-3.272z" fill="#FFAC07"/></g><defs><clipPath id="clip0"><path fill="#fff" transform="translate(.674)" d="M0 0h32.723v30H0z"/></clipPath></defs></svg>