<svg width="60" height="60" fill="none" xmlns="http://www.w3.org/2000/svg"><path d="M57.95 18.618h-9.39l5.607-6.24c.311-.348.469-.795.444-1.26a1.734 1.734 0 00-.576-1.204l-2.411-2.165a1.746 1.746 0 00-2.463.131l-9.645 10.738H22.728a.879.879 0 000 1.758h15.209l-3.921 4.365a1.734 1.734 0 00-.428 1.422l-1.348 3.644a1.39 1.39 0 00.377 1.526 1.391 1.391 0 001.557.212l3.482-1.732c.022.001.044.004.066.004a1.734 1.734 0 001.3-.58l7.96-8.86h10.967c.162 0 .293.13.293.292v33.863a.293.293 0 01-.293.293h-6.394a.879.879 0 100 1.757h6.394c1.13 0 2.051-.92 2.051-2.05V20.669c0-1.131-.92-2.05-2.05-2.05zm-5.1-7.405l-1.044 1.161-2.39-2.147 1.044-1.162 2.39 2.148zm-4.61.322l.542.486-12.908 14.371-.541-.487 12.908-14.37zM34.846 27.831l1.016.912-1.657.824.641-1.736zm2.878.222l-.542-.486 12.91-14.371.54.486-12.908 14.37z" fill="#000"/><path d="M47.728 54.825H8.197a6.446 6.446 0 01-6.44-6.44v-.464a6.445 6.445 0 016.44-6.438h1.806c1.13 0 2.05-.92 2.05-2.051V20.376h6.848a.879.879 0 000-1.758h-6.848v-3.052a.879.879 0 10-1.757 0v23.866a.293.293 0 01-.293.293H8.196a8.186 8.186 0 00-6.438 3.13V11.712a6.446 6.446 0 016.439-6.439h1.806c.161 0 .293.132.293.293v6.173a.879.879 0 101.757 0V5.566c0-1.13-.92-2.05-2.05-2.05H8.197C3.677 3.516 0 7.192 0 11.712v36.674c0 4.52 3.677 8.196 8.197 8.196h39.53a.879.879 0 100-1.758z" fill="#000"/><path d="M46.898 27.897c-3.59 0-6.534 2.814-6.745 6.352h-4.046a.88.88 0 00-.879.88v10.039a.88.88 0 00.88.879h10.039a.879.879 0 00.879-.88v-3.756c3.668-.07 6.63-3.072 6.63-6.756a6.766 6.766 0 00-6.758-6.758zm-1.63 11.485a5.02 5.02 0 01-3.183-3.375h3.183v3.375zm-8.282 4.907v-8.282h3.29a6.78 6.78 0 004.992 5.207v3.075h-8.282zm10.04-4.636v-4.525a.88.88 0 00-.879-.879h-4.231a5.006 5.006 0 014.982-4.594 5.006 5.006 0 015.001 5 5.006 5.006 0 01-4.873 4.998z" fill="#000"/><path d="M50.163 42.02a.879.879 0 100 1.759h1.955a.879.879 0 100-1.758h-1.955zm2.834 3.148a.879.879 0 00-.879-.879h-1.955a.879.879 0 100 1.758h1.955a.879.879 0 00.88-.879zM16.055 27.547h1.406a.879.879 0 100-1.758h-1.406a.88.88 0 000 1.758zm0 2.561h6.784a.879.879 0 100-1.758h-6.784a.879.879 0 000 1.758zm5.378-2.561h1.406a.879.879 0 100-1.758h-1.406a.88.88 0 000 1.758zm6.785-1.757H26.81a.88.88 0 000 1.757h1.407a.879.879 0 100-1.758zm-12.163 6.859h6.784a.879.879 0 100-1.758h-6.784a.879.879 0 000 1.758zm-.879 1.662c0 .486.393.88.879.88H26.81a.879.879 0 100-1.759H16.055a.88.88 0 00-.88.88zm13.92 2.542a.879.879 0 00-.878-.88H16.055a.88.88 0 000 1.759h12.163a.879.879 0 00.878-.88zm-9.74 4.094a.879.879 0 00-.88-.879h-2.421a.879.879 0 00-.88.88v2.421a.88.88 0 00.88.879h2.422a.879.879 0 00.879-.879v-2.422zm-1.758 1.543h-.664v-.664h.664v.664zm7.568-1.543a.879.879 0 00-.878-.879h-2.422a.879.879 0 00-.88.88v2.421a.88.88 0 00.88.879h2.422a.879.879 0 00.878-.879v-2.422zM23.41 42.49h-.665v-.664h.665v.664zm7.568-1.543a.879.879 0 00-.88-.879h-2.421a.879.879 0 00-.879.88v2.421c0 .486.393.879.879.879h2.422a.879.879 0 00.879-.879v-2.422zM29.22 42.49h-.664v-.664h.664v.664zm-10.743 3.75h-2.422a.879.879 0 00-.88.88v2.421a.88.88 0 00.88.879h2.422a.879.879 0 00.879-.879v-2.422a.879.879 0 00-.88-.879zm-.88 2.422h-.663v-.664h.664v.664zm6.691-2.422h-2.422a.879.879 0 00-.88.88v2.421a.88.88 0 00.88.879h2.422a.879.879 0 00.878-.879v-2.422a.879.879 0 00-.878-.879zm-.88 2.422h-.664v-.664h.665v.664zm4.269 1.758h2.422a.879.879 0 00.879-.879v-2.422a.88.88 0 00-.88-.879h-2.421a.879.879 0 00-.879.879v2.422c0 .486.393.879.879.879zm.879-2.422h.664v.664h-.664v-.664z" fill="#000"/></svg>