<svg width="30" height="30" fill="none" xmlns="http://www.w3.org/2000/svg"><path d="M14.994 0C8.364 0 2.969 5.396 2.969 12.025c0 .755.069 1.516.213 2.258a11.842 11.842 0 00.887 2.774c1.296 3.05 4.145 7.735 10.396 12.754a.854.854 0 001.07 0c6.245-5.018 9.1-9.704 10.396-12.754a11.705 11.705 0 00.887-2.774c.138-.742.213-1.503.213-2.258C27.02 5.396 21.623 0 14.994 0zm10.138 13.987c0 .013-.006.026-.006.038-.007.032-.025.126-.057.27v.013a9.993 9.993 0 01-.698 2.05c-.006.007-.006.02-.012.026-1.177 2.786-3.755 7.037-9.365 11.673-5.61-4.636-8.189-8.887-9.365-11.673-.006-.007-.006-.02-.013-.026a10.651 10.651 0 01-.698-2.05v-.012c-.037-.145-.05-.24-.056-.27 0-.013-.007-.026-.007-.045a10.27 10.27 0 01-.188-1.962c0-5.692 4.635-10.327 10.327-10.327S25.32 6.327 25.32 12.019c0 .666-.063 1.327-.189 1.968z" fill="#FFAC07"/><path d="M14.994 4.522c-4.208 0-7.636 3.428-7.636 7.635 0 4.208 3.428 7.635 7.636 7.635 4.207 0 7.635-3.427 7.635-7.635 0-4.207-3.428-7.635-7.635-7.635zm0 13.572a5.944 5.944 0 01-5.937-5.937 5.948 5.948 0 015.937-5.937 5.948 5.948 0 015.937 5.937c0 3.27-2.66 5.937-5.937 5.937z" fill="#FFAC07"/></svg>