<svg width="60" height="60" fill="none" xmlns="http://www.w3.org/2000/svg"><path d="M35 3H25a1 1 0 000 2h10a1 1 0 000-2zm7 0h-1a1 1 0 000 2h1a1 1 0 000-2zM31.242 51h-2.483A2.762 2.762 0 0026 53.759v.483A2.761 2.761 0 0028.758 57h2.483A2.762 2.762 0 0034 54.242v-.483A2.762 2.762 0 0031.242 51zM32 54.242c0 .418-.34.758-.758.758h-2.483a.76.76 0 01-.76-.758v-.483a.76.76 0 01.76-.76h2.482a.76.76 0 01.759.76v.483z" fill="#000"/><path d="M43.386 0H16.615A3.62 3.62 0 0013 3.615v52.77A3.62 3.62 0 0016.615 60h26.77A3.62 3.62 0 0047 56.386V3.615A3.62 3.62 0 0043.386 0zM45 56.385c0 .89-.724 1.615-1.614 1.615H16.615A1.617 1.617 0 0115 56.386V3.615C15 2.725 15.724 2 16.615 2h26.77C44.275 2 45 2.725 45 3.615v52.77z" fill="#000"/><path d="M46 6H14a1 1 0 00-1 1v42a1 1 0 001 1h32a1 1 0 001-1V7a1 1 0 00-1-1zm-1 42H15V8h30v40z" fill="#000"/></svg>