<svg width="30" height="30" fill="none" xmlns="http://www.w3.org/2000/svg"><path d="M4 30h22c.85 0 1.5-.65 1.5-1.5V3c0-.85-.65-1.5-1.5-1.5h-6c0-.85-.65-1.5-1.5-1.5h-7c-.85 0-1.5.65-1.5 1.5H4c-.85 0-1.5.65-1.5 1.5v25.5c0 .85.65 1.5 1.5 1.5zm7-28.5c0-.3.2-.5.5-.5h7c.3 0 .5.2.5.5V4c0 .3-.2.5-.5.5h-7c-.3 0-.5-.2-.5-.5V1.5zM3.5 3c0-.3.2-.5.5-.5h6V4c0 .85.65 1.5 1.5 1.5h7c.65 0 1.2-.4 1.4-1h4.6v19H21V27H5.5V4.5H9v-1H4.5V28h17.2l3.8-3.8V3.5H20v-1h6c.3 0 .5.2.5.5v25.5c0 .3-.2.5-.5.5H4c-.3 0-.5-.2-.5-.5V3zm20.3 21.5L22 26.3v-1.8h1.8z" fill="#FFAC07"/><path d="M13 2.5h4v1h-4v-1zm-6 14h16v-8H7v8zm1-7h14v6H8v-6zm3.5-3h7v1h-7v-1zM7 17.5h3.5v1H7v-1zm4.5 0H23v1H11.5v-1zm-4.5 2h6.5v1H7v-1zm7.5 0H23v1h-8.5v-1zm-7.5 2h9.5v1H7v-1zm10.5 0H23v1h-5.5v-1zM7 23.5h12.5v1H7v-1z" fill="#FFAC07"/></svg>