<svg width="60" height="60" fill="none" xmlns="http://www.w3.org/2000/svg"><g clip-path="url(#clip0)" fill="#000"><path d="M56.914 23.043l-5.162-.497a21.998 21.998 0 00-2.62-6.226l3.29-3.971a.98.98 0 00-.062-1.319l-5.583-5.583a.98.98 0 00-1.318-.061l-3.975 3.29a22.628 22.628 0 00-6.222-2.621L34.764.886A.98.98 0 0033.788 0h-7.63a.98.98 0 00-.976.886l-.498 5.169a22.612 22.612 0 00-6.223 2.622l-3.975-3.292a.98.98 0 00-1.318.06L7.585 11.03a.98.98 0 00-.061 1.319l3.289 3.971a21.99 21.99 0 00-2.623 6.226l-5.158.498a.975.975 0 00-.881.976v7.915a.975.975 0 00.88.975l5.165.498a22.615 22.615 0 002.62 6.223l-3.293 3.974a.98.98 0 00.106 1.36l4.234 3.745a.981.981 0 001.454-.173l6.086-8.733a.981.981 0 00-.111-1.254c-5.84-5.84-5.84-15.307 0-21.146 5.84-5.84 15.307-5.84 21.146 0 5.84 5.84 5.84 15.307 0 21.146a.98.98 0 00-.102 1.267l6.3 8.732a.98.98 0 001.444.161l4.236-3.744a.981.981 0 00.106-1.36L49.13 39.63a22.614 22.614 0 002.622-6.223l5.162-.498a.975.975 0 00.88-.975v-7.916a.975.975 0 00-.88-.976zm-1.081 8l-4.973.48a.977.977 0 00-.86.765 20.675 20.675 0 01-2.9 6.884.98.98 0 00.066 1.162l3.14 3.791-2.713 2.399-5.19-7.195c6.01-6.63 5.817-16.916-.578-23.312-6.595-6.595-17.325-6.595-23.92 0-6.399 6.399-6.588 16.693-.569 23.322l-4.998 7.173-2.7-2.387 3.14-3.791a.981.981 0 00.066-1.163 20.7 20.7 0 01-2.902-6.883.973.973 0 00-.857-.765l-4.973-.48V24.91l4.973-.48a.976.976 0 00.86-.769 20.073 20.073 0 012.898-6.873.981.981 0 00-.063-1.168l-3.177-3.835 4.32-4.32 3.836 3.175a.979.979 0 001.162.066 20.689 20.689 0 016.883-2.902.98.98 0 00.764-.863l.48-4.98h5.85l.48 4.98a.98.98 0 00.763.863 20.687 20.687 0 016.884 2.902.98.98 0 001.162-.065l3.835-3.176 4.32 4.32-3.176 3.835a.98.98 0 00-.062 1.167 20.08 20.08 0 012.898 6.874.972.972 0 00.858.77l4.973.479v6.134z"/><path d="M33.391 45.232V30.344c2.472-1.427 4.094-4.137 4.094-6.929 0-3.815-2.181-6.594-5.836-7.432a.981.981 0 00-1.197 1.032l.324 4.16c-.819.43-1.795.43-2.615.002l.349-4.184a.98.98 0 00-1.25-1.023c-3.342.968-5.424 3.842-5.424 7.502 0 3.36 1.762 6.077 4.704 7.255v14.83c-2.084 1.23-4.091 3.726-4.06 6.902 0 3.784 2.158 6.581 5.765 7.484a.982.982 0 001.218-1.027l-.323-4.16a2.817 2.817 0 012.614-.002l-.348 4.184a.98.98 0 001.25 1.023c3.326-.963 5.412-3.823 5.446-7.474 0-3.36-1.785-6.077-4.71-7.255zm.105 12.238l.261-3.135a.98.98 0 00-.382-.862l-.037-.028a4.777 4.777 0 00-5.827.038.98.98 0 00-.37.846l.25 3.226c-1.888-.941-2.943-2.738-2.943-5.106-.026-2.58 1.79-4.613 3.495-5.411a.975.975 0 00.558-.888V30.032a.976.976 0 00-.691-.939c-2.476-.747-4.01-2.9-4.01-5.622 0-2.19.975-4.003 2.618-5.01l-.26 3.135a.979.979 0 00.384.861l.037.028a4.775 4.775 0 005.848-.055.982.982 0 00.35-.83l-.254-3.259c1.925.902 3.002 2.691 3.002 5.075 0 2.221-1.453 4.463-3.534 5.451a.98.98 0 00-.56.886v16.173a.98.98 0 00.698.938c2.476.748 4.013 2.902 4.013 5.614-.02 2.182-1.004 3.987-2.645 4.992z"/></g><defs><clipPath id="clip0"><path fill="#fff" d="M0 0h60v60H0z"/></clipPath></defs></svg>