<svg width="138" height="40" fill="none" xmlns="http://www.w3.org/2000/svg"><path d="M65.072 34.633H62.81l.007 3.858h-1.094v-4.755h3.356l-.007.897zm17-.897c.42 0 .785.07 1.093.21.313.14.553.34.72.598.168.258.252.564.252.917 0 .349-.084.654-.252.917a1.628 1.628 0 01-.72.598c-.308.136-.672.204-1.093.204h-.958v1.31h-1.1v-4.754h2.058zm-.062 2.547c.331 0 .582-.07.754-.21.173-.145.259-.35.259-.612 0-.267-.086-.47-.258-.611-.173-.145-.424-.218-.755-.218h-.896v1.651h.896zm21.303-2.547l-2.024 3.763c-.195.362-.43.636-.706.822a1.548 1.548 0 01-.89.278 2.05 2.05 0 01-.774-.163l.264-.835c.19.059.35.088.476.088a.716.716 0 00.367-.095c.108-.068.208-.172.299-.313l.04-.054-1.874-3.491h1.175l1.263 2.554 1.304-2.554h1.08zm19.121 0v4.755h-1.094v-3.858h-2.146v3.858H118.1v-4.755h4.334z" fill="#333"/><path fill-rule="evenodd" clip-rule="evenodd" d="M52.075 17.358h3.774V15.85h-9.057v1.51h3.774v9.056h1.51V17.36zm9.057-1.509c-.706 0-1.663.308-2.44 1.148-.788.85-1.334 2.182-1.334 4.135 0 1.953.546 3.285 1.334 4.135.776.84 1.734 1.148 2.44 1.148h5.283v-1.51h-5.283c-.3 0-.852-.144-1.333-.663-.394-.426-.782-1.15-.897-2.355h7.513v-1.51h-7.513c.115-1.205.503-1.93.897-2.355.481-.52 1.032-.663 1.333-.663h5.283v-1.51h-5.283zm7.548 0h9.056v10.566h-1.51V17.36H70.19v9.056h-1.51V15.85zm20.878.609c.192.276.253.595.253.9v9.056l-1.51.001v-9.043a2.047 2.047 0 00-.19-.013 8.75 8.75 0 00-.34-.002l-.224.002c-.054 0-.242.038-.587.415-.33.36-.697.912-1.113 1.653-.541.961-1.115 2.145-1.764 3.483-.356.735-.735 1.516-1.144 2.333a2.11 2.11 0 01-.564.722 1.918 1.918 0 01-.775.366c-.399.092-.882.089-1.344.085H80v-1.51h.32c.466.002.728.003.938-.046a.415.415 0 00.175-.074.624.624 0 00.156-.218c.385-.77.753-1.528 1.105-2.255.665-1.37 1.275-2.627 1.837-3.626.432-.769.867-1.443 1.316-1.933.433-.472 1-.905 1.7-.905h.175c.143-.002.3-.003.436.001.2.006.444.025.68.098.249.076.522.225.72.51zm-1.263.818zm11.328.082h-3.02a2.264 2.264 0 00-2.263 2.265v3.018a2.264 2.264 0 002.264 2.265h3.019a2.264 2.264 0 002.264-2.264v-3.02a2.264 2.264 0 00-2.264-2.264zm-3.02-1.509a3.774 3.774 0 00-3.773 3.774v3.018a3.774 3.774 0 003.774 3.774h3.019a3.773 3.773 0 003.773-3.773v-3.02a3.773 3.773 0 00-3.773-3.773h-3.02zm13.586 1.509h3.773V15.85h-9.056v1.51h3.773v9.056h1.51V17.36zm8.302-1.509c-.706 0-1.664.308-2.441 1.148-.787.85-1.333 2.182-1.333 4.135 0 1.953.546 3.285 1.333 4.135.777.84 1.735 1.148 2.441 1.148h5.283v-1.51h-5.283c-.301 0-.853-.144-1.333-.663-.395-.426-.782-1.15-.897-2.355h7.513v-1.51h-7.513c.115-1.205.502-1.93.897-2.355.48-.52 1.032-.663 1.333-.663h5.283v-1.51h-5.283zm13.207 6.604l-3.396 3.962h-2.264l4.528-5.283-4.528-5.283h2.264l3.396 3.962 3.396-3.962h2.264l-4.528 5.283 4.528 5.283h-2.264l-3.396-3.962zM26.415 1.887a1.887 1.887 0 01-3.031 1.5H3.387v12.45a1.887 1.887 0 11-3 0V.386h22.997a1.887 1.887 0 013.031 1.5zM38.868.755h-9.811V9.81H20a1.887 1.887 0 100 2.264h11.32V3.02h5.284v34.717H3.019V25.283h24.15v1.51a1.887 1.887 0 102.264 0v-3.774H.756V40h38.113V.755z" fill="#333"/><path fill-rule="evenodd" clip-rule="evenodd" d="M34.717 5.283H4.528v10.566h9.812v10.943a1.887 1.887 0 102.264 0V13.585H6.792V7.547h25.66v25.66h-8.301V15.85h1.887a1.887 1.887 0 100-2.264h-4.151v21.887h12.83V5.283zM7.547 21.51a1.887 1.887 0 10-2.264 0v13.962h8.68a1.887 1.887 0 100-2.264H7.546V21.51z" fill="url(#paint0_linear)"/><defs><linearGradient id="paint0_linear" x1="34.717" y1="5.283" x2="4.528" y2="36.226" gradientUnits="userSpaceOnUse"><stop stop-color="#D70FB2"/><stop offset="1" stop-color="#FFAC07"/></linearGradient></defs></svg>