<svg width="182" height="53" fill="none" xmlns="http://www.w3.org/2000/svg"><path d="M86.22 45.888h-2.997L83.232 51h-1.449v-6.3h4.446l-.009 1.188zm22.525-1.188c.558 0 1.041.093 1.449.28.414.185.732.45.954.791.222.342.333.747.333 1.215 0 .462-.111.867-.333 1.215-.222.342-.54.606-.954.792-.408.18-.891.27-1.449.27h-1.269V51h-1.458v-6.3h2.727zm-.081 3.375c.438 0 .771-.093.999-.279.228-.192.342-.462.342-.81 0-.354-.114-.624-.342-.81-.228-.192-.561-.288-.999-.288h-1.188v2.187h1.188zM136.89 44.7l-2.682 4.986c-.258.48-.57.843-.936 1.09-.36.245-.753.368-1.179.368-.33 0-.672-.072-1.026-.216l.351-1.107c.252.078.462.117.63.117.18 0 .342-.042.486-.126.144-.09.276-.228.396-.414l.054-.072L130.5 44.7h1.557l1.674 3.384 1.728-3.384h1.431zm25.335 0V51h-1.449v-5.112h-2.844V51h-1.449v-6.3h5.742z" fill="#fff"/><path fill-rule="evenodd" clip-rule="evenodd" d="M69 23h5v-2H62v2h5v12h2V23zm12-2c-.935 0-2.204.409-3.234 1.52C76.723 23.648 76 25.413 76 28c0 2.588.723 4.353 1.766 5.48C78.796 34.59 80.066 35 81 35h7v-2h-7c-.398 0-1.13-.191-1.766-.88-.523-.563-1.036-1.523-1.188-3.12H88v-2h-9.954c.152-1.597.665-2.556 1.188-3.12.636-.69 1.368-.88 1.766-.88h7v-2h-7zm10 0h12v14h-2V23h-8v12h-2V21zm27.664.807c.255.366.336.789.336 1.193v12h-2V23.018a2.672 2.672 0 00-.253-.017 9.442 9.442 0 00-.449-.002L116 23c-.071 0-.321.052-.778.55-.437.477-.923 1.209-1.475 2.19-.717 1.275-1.477 2.843-2.337 4.615-.472.974-.974 2.01-1.516 3.092a2.792 2.792 0 01-.747.957 2.533 2.533 0 01-1.027.484c-.528.123-1.169.118-1.78.114L106 35v-2l.423.001c.618.003.966.004 1.243-.06a.552.552 0 00.233-.1c.045-.035.118-.11.207-.288.51-1.02.997-2.025 1.464-2.988.881-1.817 1.688-3.48 2.433-4.805.573-1.019 1.149-1.912 1.744-2.56.574-.626 1.324-1.2 2.253-1.2l.231-.001c.19-.002.397-.003.579.003.265.008.588.032.9.129.33.102.692.299.954.676zm-1.673 1.083l.001.002-.001-.002zM132 23h-4a3 3 0 00-3 3v4a3 3 0 003 3h4a3 3 0 003-3v-4a3 3 0 00-3-3zm-4-2a5 5 0 00-5 5v4a5 5 0 005 5h4a5 5 0 005-5v-4a5 5 0 00-5-5h-4zm18 2h5v-2h-12v2h5v12h2V23zm11-2c-.935 0-2.204.409-3.234 1.52C152.723 23.648 152 25.413 152 28c0 2.588.723 4.353 1.766 5.48 1.03 1.11 2.299 1.52 3.234 1.52h7v-2h-7c-.398 0-1.129-.191-1.766-.88-.523-.563-1.036-1.523-1.188-3.12H164v-2h-9.954c.152-1.597.665-2.556 1.188-3.12.637-.689 1.368-.88 1.766-.88h7v-2h-7zm17.5 8.75L179 35h3l-6-7 6-7h-3l-4.5 5.25L170 21h-3l6 7-6 7h3l4.5-5.25zM35 2.5A2.5 2.5 0 0130.5 4H4v16.5a2.5 2.5 0 11-3 0V1h29.5A2.5 2.5 0 0135 2.5zM51.5 1h-13v12h-12a2.5 2.5 0 100 3h15V4h7v46H4V33.5h32v2a2.5 2.5 0 103 0v-5H1V53h50.5V1z" fill="#fff"/><path fill-rule="evenodd" clip-rule="evenodd" d="M46 7H6v14h13v14.5a2.5 2.5 0 103 0V18H9v-8h34v34H32V21h2.5a2.5 2.5 0 100-3H29v29h17V7zM10 28.5a2.5 2.5 0 10-3 0V47h11.5a2.5 2.5 0 100-3H10V28.5z" fill="url(#paint0_linear)"/><defs><linearGradient id="paint0_linear" x1="46" y1="7" x2="6" y2="48" gradientUnits="userSpaceOnUse"><stop stop-color="#D70FB2"/><stop offset="1" stop-color="#FFAC07"/></linearGradient></defs></svg>